  0
SECTION
  2
BLOCKS
  0
ENDSEC
  0
SECTION
  2
ENTITIES
  0
LINE
  8
0
 10
10.8471
 20
-64.9455
 11
10.8521
 21
-64.9457
  0
LINE
  8
0
 10
10.8521
 20
-64.9457
 11
10.9682
 21
-64.942
  0
LINE
  8
0
 10
10.9682
 20
-64.942
 11
11.0837
 21
-64.9311
  0
LINE
  8
0
 10
11.0837
 20
-64.9311
 11
11.1984
 21
-64.913
  0
LINE
  8
0
 10
11.1984
 20
-64.913
 11
11.3117
 21
-64.8876
  0
LINE
  8
0
 10
11.3117
 20
-64.8876
 11
11.4232
 21
-64.8553
  0
LINE
  8
0
 10
11.4232
 20
-64.8553
 11
11.5324
 21
-64.8159
  0
LINE
  8
0
 10
11.5324
 20
-64.8159
 11
11.6389
 21
-64.7698
  0
LINE
  8
0
 10
11.6389
 20
-64.7698
 11
11.7424
 21
-64.7171
  0
LINE
  8
0
 10
11.7424
 20
-64.7171
 11
11.8423
 21
-64.658
  0
LINE
  8
0
 10
11.8423
 20
-64.658
 11
11.9383
 21
-64.5928
  0
LINE
  8
0
 10
11.9383
 20
-64.5928
 11
12.03
 21
-64.5216
  0
LINE
  8
0
 10
12.03
 20
-64.5216
 11
12.1171
 21
-64.4449
  0
LINE
  8
0
 10
12.1171
 20
-64.4449
 11
12.1992
 21
-64.3628
  0
LINE
  8
0
 10
12.1992
 20
-64.3628
 11
12.2759
 21
-64.2757
  0
LINE
  8
0
 10
12.2759
 20
-64.2757
 11
12.3471
 21
-64.184
  0
LINE
  8
0
 10
12.3471
 20
-64.184
 11
12.4123
 21
-64.088
  0
LINE
  8
0
 10
12.4123
 20
-64.088
 11
12.4714
 21
-63.9881
  0
LINE
  8
0
 10
12.4714
 20
-63.9881
 11
12.5241
 21
-63.8846
  0
LINE
  8
0
 10
12.5241
 20
-63.8846
 11
12.5702
 21
-63.7781
  0
LINE
  8
0
 10
12.5702
 20
-63.7781
 11
12.6095
 21
-63.6689
  0
LINE
  8
0
 10
12.6095
 20
-63.6689
 11
12.6419
 21
-63.5574
  0
LINE
  8
0
 10
12.6419
 20
-63.5574
 11
12.6673
 21
-63.4441
  0
LINE
  8
0
 10
12.6673
 20
-63.4441
 11
12.6854
 21
-63.3295
  0
LINE
  8
0
 10
12.6854
 20
-63.3295
 11
12.6963
 21
-63.2139
  0
LINE
  8
0
 10
12.6963
 20
-63.2139
 11
12.7
 21
-63.0979
  0
LINE
  8
0
 10
12.7
 20
-63.0979
 11
12.6998
 21
-63.0928
  0
LINE
  8
0
 10
12.6998
 20
-63.0928
 11
12.7
 21
-63.0928
  0
LINE
  8
0
 10
12.7
 20
-63.0928
 11
12.7
 21
-59.4072
  0
LINE
  8
0
 10
12.7
 20
-59.4072
 11
12.6998
 21
-59.4072
  0
LINE
  8
0
 10
12.6998
 20
-59.4072
 11
12.7
 21
-59.4021
  0
LINE
  8
0
 10
12.7
 20
-59.4021
 11
12.6963
 21
-59.2861
  0
LINE
  8
0
 10
12.6963
 20
-59.2861
 11
12.6854
 21
-59.1705
  0
LINE
  8
0
 10
12.6854
 20
-59.1705
 11
12.6673
 21
-59.0559
  0
LINE
  8
0
 10
12.6673
 20
-59.0559
 11
12.6419
 21
-58.9426
  0
LINE
  8
0
 10
12.6419
 20
-58.9426
 11
12.6095
 21
-58.8311
  0
LINE
  8
0
 10
12.6095
 20
-58.8311
 11
12.5702
 21
-58.7219
  0
LINE
  8
0
 10
12.5702
 20
-58.7219
 11
12.5241
 21
-58.6154
  0
LINE
  8
0
 10
12.5241
 20
-58.6154
 11
12.4714
 21
-58.5119
  0
LINE
  8
0
 10
12.4714
 20
-58.5119
 11
12.4123
 21
-58.412
  0
LINE
  8
0
 10
12.4123
 20
-58.412
 11
12.3471
 21
-58.316
  0
LINE
  8
0
 10
12.3471
 20
-58.316
 11
12.2759
 21
-58.2243
  0
LINE
  8
0
 10
12.2759
 20
-58.2243
 11
12.1992
 21
-58.1372
  0
LINE
  8
0
 10
12.1992
 20
-58.1372
 11
12.1171
 21
-58.0551
  0
LINE
  8
0
 10
12.1171
 20
-58.0551
 11
12.03
 21
-57.9784
  0
LINE
  8
0
 10
12.03
 20
-57.9784
 11
11.9383
 21
-57.9072
  0
LINE
  8
0
 10
11.9383
 20
-57.9072
 11
11.8423
 21
-57.842
  0
LINE
  8
0
 10
11.8423
 20
-57.842
 11
11.7424
 21
-57.7829
  0
LINE
  8
0
 10
11.7424
 20
-57.7829
 11
11.6389
 21
-57.7302
  0
LINE
  8
0
 10
11.6389
 20
-57.7302
 11
11.5324
 21
-57.6841
  0
LINE
  8
0
 10
11.5324
 20
-57.6841
 11
11.4232
 21
-57.6447
  0
LINE
  8
0
 10
11.4232
 20
-57.6447
 11
11.3117
 21
-57.6124
  0
LINE
  8
0
 10
11.3117
 20
-57.6124
 11
11.1984
 21
-57.587
  0
LINE
  8
0
 10
11.1984
 20
-57.587
 11
11.0837
 21
-57.5689
  0
LINE
  8
0
 10
11.0837
 20
-57.5689
 11
10.9682
 21
-57.558
  0
LINE
  8
0
 10
10.9682
 20
-57.558
 11
10.8521
 21
-57.5543
  0
LINE
  8
0
 10
10.8521
 20
-57.5543
 11
10.8471
 21
-57.5545
  0
LINE
  8
0
 10
10.8471
 20
-57.5545
 11
10.8471
 21
-57.5543
  0
LINE
  8
0
 10
10.8471
 20
-57.5543
 11
5
 21
-57.5543
  0
LINE
  8
0
 10
5
 20
-57.5543
 11
5
 21
57.5543
  0
LINE
  8
0
 10
5
 20
57.5543
 11
10.8471
 21
57.5543
  0
LINE
  8
0
 10
10.8471
 20
57.5543
 11
10.8471
 21
57.5545
  0
LINE
  8
0
 10
10.8471
 20
57.5545
 11
10.8521
 21
57.5543
  0
LINE
  8
0
 10
10.8521
 20
57.5543
 11
10.9682
 21
57.558
  0
LINE
  8
0
 10
10.9682
 20
57.558
 11
11.0837
 21
57.5689
  0
LINE
  8
0
 10
11.0837
 20
57.5689
 11
11.1984
 21
57.587
  0
LINE
  8
0
 10
11.1984
 20
57.587
 11
11.3117
 21
57.6124
  0
LINE
  8
0
 10
11.3117
 20
57.6124
 11
11.4232
 21
57.6447
  0
LINE
  8
0
 10
11.4232
 20
57.6447
 11
11.5324
 21
57.6841
  0
LINE
  8
0
 10
11.5324
 20
57.6841
 11
11.6389
 21
57.7302
  0
LINE
  8
0
 10
11.6389
 20
57.7302
 11
11.7424
 21
57.7829
  0
LINE
  8
0
 10
11.7424
 20
57.7829
 11
11.8423
 21
57.842
  0
LINE
  8
0
 10
11.8423
 20
57.842
 11
11.9383
 21
57.9072
  0
LINE
  8
0
 10
11.9383
 20
57.9072
 11
12.03
 21
57.9784
  0
LINE
  8
0
 10
12.03
 20
57.9784
 11
12.1171
 21
58.0551
  0
LINE
  8
0
 10
12.1171
 20
58.0551
 11
12.1992
 21
58.1372
  0
LINE
  8
0
 10
12.1992
 20
58.1372
 11
12.2759
 21
58.2243
  0
LINE
  8
0
 10
12.2759
 20
58.2243
 11
12.3471
 21
58.316
  0
LINE
  8
0
 10
12.3471
 20
58.316
 11
12.4123
 21
58.412
  0
LINE
  8
0
 10
12.4123
 20
58.412
 11
12.4714
 21
58.5119
  0
LINE
  8
0
 10
12.4714
 20
58.5119
 11
12.5241
 21
58.6154
  0
LINE
  8
0
 10
12.5241
 20
58.6154
 11
12.5702
 21
58.7219
  0
LINE
  8
0
 10
12.5702
 20
58.7219
 11
12.6095
 21
58.8311
  0
LINE
  8
0
 10
12.6095
 20
58.8311
 11
12.6419
 21
58.9426
  0
LINE
  8
0
 10
12.6419
 20
58.9426
 11
12.6673
 21
59.0559
  0
LINE
  8
0
 10
12.6673
 20
59.0559
 11
12.6854
 21
59.1705
  0
LINE
  8
0
 10
12.6854
 20
59.1705
 11
12.6963
 21
59.2861
  0
LINE
  8
0
 10
12.6963
 20
59.2861
 11
12.7
 21
59.4021
  0
LINE
  8
0
 10
12.7
 20
59.4021
 11
12.6998
 21
59.4072
  0
LINE
  8
0
 10
12.6998
 20
59.4072
 11
12.7
 21
59.4072
  0
LINE
  8
0
 10
12.7
 20
59.4072
 11
12.7
 21
63.0928
  0
LINE
  8
0
 10
12.7
 20
63.0928
 11
12.6998
 21
63.0928
  0
LINE
  8
0
 10
12.6998
 20
63.0928
 11
12.7
 21
63.0979
  0
LINE
  8
0
 10
12.7
 20
63.0979
 11
12.6963
 21
63.2139
  0
LINE
  8
0
 10
12.6963
 20
63.2139
 11
12.6854
 21
63.3295
  0
LINE
  8
0
 10
12.6854
 20
63.3295
 11
12.6673
 21
63.4441
  0
LINE
  8
0
 10
12.6673
 20
63.4441
 11
12.6419
 21
63.5574
  0
LINE
  8
0
 10
12.6419
 20
63.5574
 11
12.6095
 21
63.6689
  0
LINE
  8
0
 10
12.6095
 20
63.6689
 11
12.5702
 21
63.7781
  0
LINE
  8
0
 10
12.5702
 20
63.7781
 11
12.5241
 21
63.8846
  0
LINE
  8
0
 10
12.5241
 20
63.8846
 11
12.4714
 21
63.9881
  0
LINE
  8
0
 10
12.4714
 20
63.9881
 11
12.4123
 21
64.088
  0
LINE
  8
0
 10
12.4123
 20
64.088
 11
12.3471
 21
64.184
  0
LINE
  8
0
 10
12.3471
 20
64.184
 11
12.2759
 21
64.2757
  0
LINE
  8
0
 10
12.2759
 20
64.2757
 11
12.1992
 21
64.3628
  0
LINE
  8
0
 10
12.1992
 20
64.3628
 11
12.1171
 21
64.4449
  0
LINE
  8
0
 10
12.1171
 20
64.4449
 11
12.03
 21
64.5216
  0
LINE
  8
0
 10
12.03
 20
64.5216
 11
11.9383
 21
64.5928
  0
LINE
  8
0
 10
11.9383
 20
64.5928
 11
11.8423
 21
64.658
  0
LINE
  8
0
 10
11.8423
 20
64.658
 11
11.7424
 21
64.7171
  0
LINE
  8
0
 10
11.7424
 20
64.7171
 11
11.6389
 21
64.7698
  0
LINE
  8
0
 10
11.6389
 20
64.7698
 11
11.5324
 21
64.8159
  0
LINE
  8
0
 10
11.5324
 20
64.8159
 11
11.4232
 21
64.8553
  0
LINE
  8
0
 10
11.4232
 20
64.8553
 11
11.3117
 21
64.8876
  0
LINE
  8
0
 10
11.3117
 20
64.8876
 11
11.1984
 21
64.913
  0
LINE
  8
0
 10
11.1984
 20
64.913
 11
11.0837
 21
64.9311
  0
LINE
  8
0
 10
11.0837
 20
64.9311
 11
10.9682
 21
64.942
  0
LINE
  8
0
 10
10.9682
 20
64.942
 11
10.8521
 21
64.9457
  0
LINE
  8
0
 10
10.8521
 20
64.9457
 11
10.8471
 21
64.9455
  0
LINE
  8
0
 10
10.8471
 20
64.9455
 11
10.8471
 21
64.9457
  0
LINE
  8
0
 10
10.8471
 20
64.9457
 11
-10.8471
 21
64.9457
  0
LINE
  8
0
 10
-10.8471
 20
64.9457
 11
-10.8471
 21
64.9455
  0
LINE
  8
0
 10
-10.8471
 20
64.9455
 11
-10.8521
 21
64.9457
  0
LINE
  8
0
 10
-10.8521
 20
64.9457
 11
-10.9682
 21
64.942
  0
LINE
  8
0
 10
-10.9682
 20
64.942
 11
-11.0837
 21
64.9311
  0
LINE
  8
0
 10
-11.0837
 20
64.9311
 11
-11.1984
 21
64.913
  0
LINE
  8
0
 10
-11.1984
 20
64.913
 11
-11.3117
 21
64.8876
  0
LINE
  8
0
 10
-11.3117
 20
64.8876
 11
-11.4232
 21
64.8553
  0
LINE
  8
0
 10
-11.4232
 20
64.8553
 11
-11.5324
 21
64.8159
  0
LINE
  8
0
 10
-11.5324
 20
64.8159
 11
-11.6389
 21
64.7698
  0
LINE
  8
0
 10
-11.6389
 20
64.7698
 11
-11.7424
 21
64.7171
  0
LINE
  8
0
 10
-11.7424
 20
64.7171
 11
-11.8423
 21
64.658
  0
LINE
  8
0
 10
-11.8423
 20
64.658
 11
-11.9383
 21
64.5928
  0
LINE
  8
0
 10
-11.9383
 20
64.5928
 11
-12.03
 21
64.5216
  0
LINE
  8
0
 10
-12.03
 20
64.5216
 11
-12.1171
 21
64.4449
  0
LINE
  8
0
 10
-12.1171
 20
64.4449
 11
-12.1992
 21
64.3628
  0
LINE
  8
0
 10
-12.1992
 20
64.3628
 11
-12.2759
 21
64.2757
  0
LINE
  8
0
 10
-12.2759
 20
64.2757
 11
-12.3471
 21
64.184
  0
LINE
  8
0
 10
-12.3471
 20
64.184
 11
-12.4123
 21
64.088
  0
LINE
  8
0
 10
-12.4123
 20
64.088
 11
-12.4714
 21
63.9881
  0
LINE
  8
0
 10
-12.4714
 20
63.9881
 11
-12.5241
 21
63.8846
  0
LINE
  8
0
 10
-12.5241
 20
63.8846
 11
-12.5702
 21
63.7781
  0
LINE
  8
0
 10
-12.5702
 20
63.7781
 11
-12.6095
 21
63.6689
  0
LINE
  8
0
 10
-12.6095
 20
63.6689
 11
-12.6419
 21
63.5574
  0
LINE
  8
0
 10
-12.6419
 20
63.5574
 11
-12.6673
 21
63.4441
  0
LINE
  8
0
 10
-12.6673
 20
63.4441
 11
-12.6854
 21
63.3295
  0
LINE
  8
0
 10
-12.6854
 20
63.3295
 11
-12.6963
 21
63.2139
  0
LINE
  8
0
 10
-12.6963
 20
63.2139
 11
-12.7
 21
63.0979
  0
LINE
  8
0
 10
-12.7
 20
63.0979
 11
-12.6998
 21
63.0928
  0
LINE
  8
0
 10
-12.6998
 20
63.0928
 11
-12.7
 21
63.0928
  0
LINE
  8
0
 10
-12.7
 20
63.0928
 11
-12.7
 21
59.4072
  0
LINE
  8
0
 10
-12.7
 20
59.4072
 11
-12.6998
 21
59.4072
  0
LINE
  8
0
 10
-12.6998
 20
59.4072
 11
-12.7
 21
59.4021
  0
LINE
  8
0
 10
-12.7
 20
59.4021
 11
-12.6963
 21
59.2861
  0
LINE
  8
0
 10
-12.6963
 20
59.2861
 11
-12.6854
 21
59.1705
  0
LINE
  8
0
 10
-12.6854
 20
59.1705
 11
-12.6673
 21
59.0559
  0
LINE
  8
0
 10
-12.6673
 20
59.0559
 11
-12.6419
 21
58.9426
  0
LINE
  8
0
 10
-12.6419
 20
58.9426
 11
-12.6095
 21
58.8311
  0
LINE
  8
0
 10
-12.6095
 20
58.8311
 11
-12.5702
 21
58.7219
  0
LINE
  8
0
 10
-12.5702
 20
58.7219
 11
-12.5241
 21
58.6154
  0
LINE
  8
0
 10
-12.5241
 20
58.6154
 11
-12.4714
 21
58.5119
  0
LINE
  8
0
 10
-12.4714
 20
58.5119
 11
-12.4123
 21
58.412
  0
LINE
  8
0
 10
-12.4123
 20
58.412
 11
-12.3471
 21
58.316
  0
LINE
  8
0
 10
-12.3471
 20
58.316
 11
-12.2759
 21
58.2243
  0
LINE
  8
0
 10
-12.2759
 20
58.2243
 11
-12.1992
 21
58.1372
  0
LINE
  8
0
 10
-12.1992
 20
58.1372
 11
-12.1171
 21
58.0551
  0
LINE
  8
0
 10
-12.1171
 20
58.0551
 11
-12.03
 21
57.9784
  0
LINE
  8
0
 10
-12.03
 20
57.9784
 11
-11.9383
 21
57.9072
  0
LINE
  8
0
 10
-11.9383
 20
57.9072
 11
-11.8423
 21
57.842
  0
LINE
  8
0
 10
-11.8423
 20
57.842
 11
-11.7424
 21
57.7829
  0
LINE
  8
0
 10
-11.7424
 20
57.7829
 11
-11.6389
 21
57.7302
  0
LINE
  8
0
 10
-11.6389
 20
57.7302
 11
-11.5324
 21
57.6841
  0
LINE
  8
0
 10
-11.5324
 20
57.6841
 11
-11.4232
 21
57.6447
  0
LINE
  8
0
 10
-11.4232
 20
57.6447
 11
-11.3117
 21
57.6124
  0
LINE
  8
0
 10
-11.3117
 20
57.6124
 11
-11.1984
 21
57.587
  0
LINE
  8
0
 10
-11.1984
 20
57.587
 11
-11.0837
 21
57.5689
  0
LINE
  8
0
 10
-11.0837
 20
57.5689
 11
-10.9682
 21
57.558
  0
LINE
  8
0
 10
-10.9682
 20
57.558
 11
-10.8521
 21
57.5543
  0
LINE
  8
0
 10
-10.8521
 20
57.5543
 11
-10.8471
 21
57.5545
  0
LINE
  8
0
 10
-10.8471
 20
57.5545
 11
-10.8471
 21
57.5543
  0
LINE
  8
0
 10
-10.8471
 20
57.5543
 11
-5
 21
57.5543
  0
LINE
  8
0
 10
-5
 20
57.5543
 11
-5
 21
-57.5543
  0
LINE
  8
0
 10
-5
 20
-57.5543
 11
-10.8471
 21
-57.5543
  0
LINE
  8
0
 10
-10.8471
 20
-57.5543
 11
-10.8471
 21
-57.5545
  0
LINE
  8
0
 10
-10.8471
 20
-57.5545
 11
-10.8521
 21
-57.5543
  0
LINE
  8
0
 10
-10.8521
 20
-57.5543
 11
-10.9682
 21
-57.558
  0
LINE
  8
0
 10
-10.9682
 20
-57.558
 11
-11.0837
 21
-57.5689
  0
LINE
  8
0
 10
-11.0837
 20
-57.5689
 11
-11.1984
 21
-57.587
  0
LINE
  8
0
 10
-11.1984
 20
-57.587
 11
-11.3117
 21
-57.6124
  0
LINE
  8
0
 10
-11.3117
 20
-57.6124
 11
-11.4232
 21
-57.6447
  0
LINE
  8
0
 10
-11.4232
 20
-57.6447
 11
-11.5324
 21
-57.6841
  0
LINE
  8
0
 10
-11.5324
 20
-57.6841
 11
-11.6389
 21
-57.7302
  0
LINE
  8
0
 10
-11.6389
 20
-57.7302
 11
-11.7424
 21
-57.7829
  0
LINE
  8
0
 10
-11.7424
 20
-57.7829
 11
-11.8423
 21
-57.842
  0
LINE
  8
0
 10
-11.8423
 20
-57.842
 11
-11.9383
 21
-57.9072
  0
LINE
  8
0
 10
-11.9383
 20
-57.9072
 11
-12.03
 21
-57.9784
  0
LINE
  8
0
 10
-12.03
 20
-57.9784
 11
-12.1171
 21
-58.0551
  0
LINE
  8
0
 10
-12.1171
 20
-58.0551
 11
-12.1992
 21
-58.1372
  0
LINE
  8
0
 10
-12.1992
 20
-58.1372
 11
-12.2759
 21
-58.2243
  0
LINE
  8
0
 10
-12.2759
 20
-58.2243
 11
-12.3471
 21
-58.316
  0
LINE
  8
0
 10
-12.3471
 20
-58.316
 11
-12.4123
 21
-58.412
  0
LINE
  8
0
 10
-12.4123
 20
-58.412
 11
-12.4714
 21
-58.5119
  0
LINE
  8
0
 10
-12.4714
 20
-58.5119
 11
-12.5241
 21
-58.6154
  0
LINE
  8
0
 10
-12.5241
 20
-58.6154
 11
-12.5702
 21
-58.7219
  0
LINE
  8
0
 10
-12.5702
 20
-58.7219
 11
-12.6095
 21
-58.8311
  0
LINE
  8
0
 10
-12.6095
 20
-58.8311
 11
-12.6419
 21
-58.9426
  0
LINE
  8
0
 10
-12.6419
 20
-58.9426
 11
-12.6673
 21
-59.0559
  0
LINE
  8
0
 10
-12.6673
 20
-59.0559
 11
-12.6854
 21
-59.1705
  0
LINE
  8
0
 10
-12.6854
 20
-59.1705
 11
-12.6963
 21
-59.2861
  0
LINE
  8
0
 10
-12.6963
 20
-59.2861
 11
-12.7
 21
-59.4021
  0
LINE
  8
0
 10
-12.7
 20
-59.4021
 11
-12.6998
 21
-59.4072
  0
LINE
  8
0
 10
-12.6998
 20
-59.4072
 11
-12.7
 21
-59.4072
  0
LINE
  8
0
 10
-12.7
 20
-59.4072
 11
-12.7
 21
-63.0928
  0
LINE
  8
0
 10
-12.7
 20
-63.0928
 11
-12.6998
 21
-63.0928
  0
LINE
  8
0
 10
-12.6998
 20
-63.0928
 11
-12.7
 21
-63.0979
  0
LINE
  8
0
 10
-12.7
 20
-63.0979
 11
-12.6963
 21
-63.2139
  0
LINE
  8
0
 10
-12.6963
 20
-63.2139
 11
-12.6854
 21
-63.3295
  0
LINE
  8
0
 10
-12.6854
 20
-63.3295
 11
-12.6673
 21
-63.4441
  0
LINE
  8
0
 10
-12.6673
 20
-63.4441
 11
-12.6419
 21
-63.5574
  0
LINE
  8
0
 10
-12.6419
 20
-63.5574
 11
-12.6095
 21
-63.6689
  0
LINE
  8
0
 10
-12.6095
 20
-63.6689
 11
-12.5702
 21
-63.7781
  0
LINE
  8
0
 10
-12.5702
 20
-63.7781
 11
-12.5241
 21
-63.8846
  0
LINE
  8
0
 10
-12.5241
 20
-63.8846
 11
-12.4714
 21
-63.9881
  0
LINE
  8
0
 10
-12.4714
 20
-63.9881
 11
-12.4123
 21
-64.088
  0
LINE
  8
0
 10
-12.4123
 20
-64.088
 11
-12.3471
 21
-64.184
  0
LINE
  8
0
 10
-12.3471
 20
-64.184
 11
-12.2759
 21
-64.2757
  0
LINE
  8
0
 10
-12.2759
 20
-64.2757
 11
-12.1992
 21
-64.3628
  0
LINE
  8
0
 10
-12.1992
 20
-64.3628
 11
-12.1171
 21
-64.4449
  0
LINE
  8
0
 10
-12.1171
 20
-64.4449
 11
-12.03
 21
-64.5216
  0
LINE
  8
0
 10
-12.03
 20
-64.5216
 11
-11.9383
 21
-64.5928
  0
LINE
  8
0
 10
-11.9383
 20
-64.5928
 11
-11.8423
 21
-64.658
  0
LINE
  8
0
 10
-11.8423
 20
-64.658
 11
-11.7424
 21
-64.7171
  0
LINE
  8
0
 10
-11.7424
 20
-64.7171
 11
-11.6389
 21
-64.7698
  0
LINE
  8
0
 10
-11.6389
 20
-64.7698
 11
-11.5324
 21
-64.8159
  0
LINE
  8
0
 10
-11.5324
 20
-64.8159
 11
-11.4232
 21
-64.8553
  0
LINE
  8
0
 10
-11.4232
 20
-64.8553
 11
-11.3117
 21
-64.8876
  0
LINE
  8
0
 10
-11.3117
 20
-64.8876
 11
-11.1984
 21
-64.913
  0
LINE
  8
0
 10
-11.1984
 20
-64.913
 11
-11.0837
 21
-64.9311
  0
LINE
  8
0
 10
-11.0837
 20
-64.9311
 11
-10.9682
 21
-64.942
  0
LINE
  8
0
 10
-10.9682
 20
-64.942
 11
-10.8521
 21
-64.9457
  0
LINE
  8
0
 10
-10.8521
 20
-64.9457
 11
-10.8471
 21
-64.9455
  0
LINE
  8
0
 10
-10.8471
 20
-64.9455
 11
-10.8471
 21
-64.9457
  0
LINE
  8
0
 10
-10.8471
 20
-64.9457
 11
10.8471
 21
-64.9457
  0
LINE
  8
0
 10
10.8471
 20
-64.9457
 11
10.8471
 21
-64.9455
  0
LINE
  8
0
 10
-11
 20
61.25
 11
-8
 21
63.25
  0
LINE
  8
0
 10
-8
 20
63.25
 11
-8
 21
62.25
  0
LINE
  8
0
 10
-8
 20
62.25
 11
-5
 21
62.25
  0
LINE
  8
0
 10
-5
 20
62.25
 11
-5
 21
60.25
  0
LINE
  8
0
 10
-5
 20
60.25
 11
-8
 21
60.25
  0
LINE
  8
0
 10
-8
 20
60.25
 11
-8
 21
59.25
  0
LINE
  8
0
 10
-8
 20
59.25
 11
-11
 21
61.25
  0
LINE
  8
0
 10
9.39957
 20
59.2564
 11
9.27463
 21
59.2682
  0
LINE
  8
0
 10
9.27463
 20
59.2682
 11
9.15068
 21
59.2878
  0
LINE
  8
0
 10
9.15068
 20
59.2878
 11
9.02821
 21
59.3152
  0
LINE
  8
0
 10
9.02821
 20
59.3152
 11
8.9077
 21
59.3502
  0
LINE
  8
0
 10
8.9077
 20
59.3502
 11
8.78964
 21
59.3927
  0
LINE
  8
0
 10
8.78964
 20
59.3927
 11
8.67447
 21
59.4426
  0
LINE
  8
0
 10
8.67447
 20
59.4426
 11
8.56265
 21
59.4995
  0
LINE
  8
0
 10
8.56265
 20
59.4995
 11
8.45464
 21
59.5634
  0
LINE
  8
0
 10
8.45464
 20
59.5634
 11
8.35085
 21
59.6339
  0
LINE
  8
0
 10
8.35085
 20
59.6339
 11
8.25169
 21
59.7108
  0
LINE
  8
0
 10
8.25169
 20
59.7108
 11
8.15756
 21
59.7938
  0
LINE
  8
0
 10
8.15756
 20
59.7938
 11
8.06882
 21
59.8826
  0
LINE
  8
0
 10
8.06882
 20
59.8826
 11
7.98584
 21
59.9767
  0
LINE
  8
0
 10
7.98584
 20
59.9767
 11
7.90892
 21
60.0759
  0
LINE
  8
0
 10
7.90892
 20
60.0759
 11
7.83838
 21
60.1797
  0
LINE
  8
0
 10
7.83838
 20
60.1797
 11
7.77451
 21
60.2877
  0
LINE
  8
0
 10
7.77451
 20
60.2877
 11
7.71753
 21
60.3995
  0
LINE
  8
0
 10
7.71753
 20
60.3995
 11
7.66769
 21
60.5146
  0
LINE
  8
0
 10
7.66769
 20
60.5146
 11
7.62518
 21
60.6327
  0
LINE
  8
0
 10
7.62518
 20
60.6327
 11
7.59018
 21
60.7532
  0
LINE
  8
0
 10
7.59018
 20
60.7532
 11
7.56281
 21
60.8757
  0
LINE
  8
0
 10
7.56281
 20
60.8757
 11
7.54317
 21
60.9996
  0
LINE
  8
0
 10
7.54317
 20
60.9996
 11
7.53136
 21
61.1246
  0
LINE
  8
0
 10
7.53136
 20
61.1246
 11
7.52742
 21
61.25
  0
LINE
  8
0
 10
7.52742
 20
61.25
 11
7.53136
 21
61.3754
  0
LINE
  8
0
 10
7.53136
 20
61.3754
 11
7.54317
 21
61.5004
  0
LINE
  8
0
 10
7.54317
 20
61.5004
 11
7.56281
 21
61.6243
  0
LINE
  8
0
 10
7.56281
 20
61.6243
 11
7.59018
 21
61.7468
  0
LINE
  8
0
 10
7.59018
 20
61.7468
 11
7.62518
 21
61.8673
  0
LINE
  8
0
 10
7.62518
 20
61.8673
 11
7.66769
 21
61.9854
  0
LINE
  8
0
 10
7.66769
 20
61.9854
 11
7.71753
 21
62.1005
  0
LINE
  8
0
 10
7.71753
 20
62.1005
 11
7.77451
 21
62.2123
  0
LINE
  8
0
 10
7.77451
 20
62.2123
 11
7.83838
 21
62.3203
  0
LINE
  8
0
 10
7.83838
 20
62.3203
 11
7.90892
 21
62.4241
  0
LINE
  8
0
 10
7.90892
 20
62.4241
 11
7.98584
 21
62.5233
  0
LINE
  8
0
 10
7.98584
 20
62.5233
 11
8.06882
 21
62.6174
  0
LINE
  8
0
 10
8.06882
 20
62.6174
 11
8.15756
 21
62.7062
  0
LINE
  8
0
 10
8.15756
 20
62.7062
 11
8.25169
 21
62.7892
  0
LINE
  8
0
 10
8.25169
 20
62.7892
 11
8.35085
 21
62.8661
  0
LINE
  8
0
 10
8.35085
 20
62.8661
 11
8.45464
 21
62.9366
  0
LINE
  8
0
 10
8.45464
 20
62.9366
 11
8.56265
 21
63.0005
  0
LINE
  8
0
 10
8.56265
 20
63.0005
 11
8.67447
 21
63.0574
  0
LINE
  8
0
 10
8.67447
 20
63.0574
 11
8.78964
 21
63.1073
  0
LINE
  8
0
 10
8.78964
 20
63.1073
 11
8.9077
 21
63.1498
  0
LINE
  8
0
 10
8.9077
 20
63.1498
 11
9.02821
 21
63.1848
  0
LINE
  8
0
 10
9.02821
 20
63.1848
 11
9.15068
 21
63.2122
  0
LINE
  8
0
 10
9.15068
 20
63.2122
 11
9.27463
 21
63.2318
  0
LINE
  8
0
 10
9.27463
 20
63.2318
 11
9.39957
 21
63.2436
  0
LINE
  8
0
 10
9.39957
 20
63.2436
 11
9.52499
 21
63.2476
  0
LINE
  8
0
 10
9.52499
 20
63.2476
 11
9.65042
 21
63.2436
  0
LINE
  8
0
 10
9.65042
 20
63.2436
 11
9.77536
 21
63.2318
  0
LINE
  8
0
 10
9.77536
 20
63.2318
 11
9.89931
 21
63.2122
  0
LINE
  8
0
 10
9.89931
 20
63.2122
 11
10.0218
 21
63.1848
  0
LINE
  8
0
 10
10.0218
 20
63.1848
 11
10.1423
 21
63.1498
  0
LINE
  8
0
 10
10.1423
 20
63.1498
 11
10.2603
 21
63.1073
  0
LINE
  8
0
 10
10.2603
 20
63.1073
 11
10.3755
 21
63.0574
  0
LINE
  8
0
 10
10.3755
 20
63.0574
 11
10.4873
 21
63.0005
  0
LINE
  8
0
 10
10.4873
 20
63.0005
 11
10.5954
 21
62.9366
  0
LINE
  8
0
 10
10.5954
 20
62.9366
 11
10.6991
 21
62.8661
  0
LINE
  8
0
 10
10.6991
 20
62.8661
 11
10.7983
 21
62.7892
  0
LINE
  8
0
 10
10.7983
 20
62.7892
 11
10.8924
 21
62.7062
  0
LINE
  8
0
 10
10.8924
 20
62.7062
 11
10.9812
 21
62.6174
  0
LINE
  8
0
 10
10.9812
 20
62.6174
 11
11.0641
 21
62.5233
  0
LINE
  8
0
 10
11.0641
 20
62.5233
 11
11.1411
 21
62.4241
  0
LINE
  8
0
 10
11.1411
 20
62.4241
 11
11.2116
 21
62.3203
  0
LINE
  8
0
 10
11.2116
 20
62.3203
 11
11.2755
 21
62.2123
  0
LINE
  8
0
 10
11.2755
 20
62.2123
 11
11.3325
 21
62.1005
  0
LINE
  8
0
 10
11.3325
 20
62.1005
 11
11.3823
 21
61.9854
  0
LINE
  8
0
 10
11.3823
 20
61.9854
 11
11.4248
 21
61.8673
  0
LINE
  8
0
 10
11.4248
 20
61.8673
 11
11.4598
 21
61.7468
  0
LINE
  8
0
 10
11.4598
 20
61.7468
 11
11.4872
 21
61.6243
  0
LINE
  8
0
 10
11.4872
 20
61.6243
 11
11.5068
 21
61.5004
  0
LINE
  8
0
 10
11.5068
 20
61.5004
 11
11.5186
 21
61.3754
  0
LINE
  8
0
 10
11.5186
 20
61.3754
 11
11.5226
 21
61.25
  0
LINE
  8
0
 10
11.5226
 20
61.25
 11
11.5186
 21
61.1246
  0
LINE
  8
0
 10
11.5186
 20
61.1246
 11
11.5068
 21
60.9996
  0
LINE
  8
0
 10
11.5068
 20
60.9996
 11
11.4872
 21
60.8757
  0
LINE
  8
0
 10
11.4872
 20
60.8757
 11
11.4598
 21
60.7532
  0
LINE
  8
0
 10
11.4598
 20
60.7532
 11
11.4248
 21
60.6327
  0
LINE
  8
0
 10
11.4248
 20
60.6327
 11
11.3823
 21
60.5146
  0
LINE
  8
0
 10
11.3823
 20
60.5146
 11
11.3325
 21
60.3995
  0
LINE
  8
0
 10
11.3325
 20
60.3995
 11
11.2755
 21
60.2877
  0
LINE
  8
0
 10
11.2755
 20
60.2877
 11
11.2116
 21
60.1797
  0
LINE
  8
0
 10
11.2116
 20
60.1797
 11
11.1411
 21
60.0759
  0
LINE
  8
0
 10
11.1411
 20
60.0759
 11
11.0641
 21
59.9767
  0
LINE
  8
0
 10
11.0641
 20
59.9767
 11
10.9812
 21
59.8826
  0
LINE
  8
0
 10
10.9812
 20
59.8826
 11
10.8924
 21
59.7938
  0
LINE
  8
0
 10
10.8924
 20
59.7938
 11
10.7983
 21
59.7108
  0
LINE
  8
0
 10
10.7983
 20
59.7108
 11
10.6991
 21
59.6339
  0
LINE
  8
0
 10
10.6991
 20
59.6339
 11
10.5954
 21
59.5634
  0
LINE
  8
0
 10
10.5954
 20
59.5634
 11
10.4873
 21
59.4995
  0
LINE
  8
0
 10
10.4873
 20
59.4995
 11
10.3755
 21
59.4426
  0
LINE
  8
0
 10
10.3755
 20
59.4426
 11
10.2603
 21
59.3927
  0
LINE
  8
0
 10
10.2603
 20
59.3927
 11
10.1423
 21
59.3502
  0
LINE
  8
0
 10
10.1423
 20
59.3502
 11
10.0218
 21
59.3152
  0
LINE
  8
0
 10
10.0218
 20
59.3152
 11
9.89931
 21
59.2878
  0
LINE
  8
0
 10
9.89931
 20
59.2878
 11
9.77536
 21
59.2682
  0
LINE
  8
0
 10
9.77536
 20
59.2682
 11
9.65042
 21
59.2564
  0
LINE
  8
0
 10
9.65042
 20
59.2564
 11
9.52499
 21
59.2524
  0
LINE
  8
0
 10
9.52499
 20
59.2524
 11
9.39957
 21
59.2564
  0
LINE
  8
0
 10
-0.125427
 20
58.2785
 11
-0.250351
 21
58.2903
  0
LINE
  8
0
 10
-0.250351
 20
58.2903
 11
-0.374298
 21
58.3099
  0
LINE
  8
0
 10
-0.374298
 20
58.3099
 11
-0.496765
 21
58.3373
  0
LINE
  8
0
 10
-0.496765
 20
58.3373
 11
-0.617279
 21
58.3723
  0
LINE
  8
0
 10
-0.617279
 20
58.3723
 11
-0.735352
 21
58.4148
  0
LINE
  8
0
 10
-0.735352
 20
58.4148
 11
-0.850525
 21
58.4646
  0
LINE
  8
0
 10
-0.850525
 20
58.4646
 11
-0.962326
 21
58.5216
  0
LINE
  8
0
 10
-0.962326
 20
58.5216
 11
-1.07034
 21
58.5855
  0
LINE
  8
0
 10
-1.07034
 20
58.5855
 11
-1.17413
 21
58.656
  0
LINE
  8
0
 10
-1.17413
 20
58.656
 11
-1.2733
 21
58.7329
  0
LINE
  8
0
 10
-1.2733
 20
58.7329
 11
-1.36743
 21
58.8159
  0
LINE
  8
0
 10
-1.36743
 20
58.8159
 11
-1.45616
 21
58.9047
  0
LINE
  8
0
 10
-1.45616
 20
58.9047
 11
-1.53915
 21
58.9988
  0
LINE
  8
0
 10
-1.53915
 20
58.9988
 11
-1.61607
 21
59.098
  0
LINE
  8
0
 10
-1.61607
 20
59.098
 11
-1.6866
 21
59.2018
  0
LINE
  8
0
 10
-1.6866
 20
59.2018
 11
-1.75049
 21
59.3098
  0
LINE
  8
0
 10
-1.75049
 20
59.3098
 11
-1.80745
 21
59.4216
  0
LINE
  8
0
 10
-1.80745
 20
59.4216
 11
-1.8573
 21
59.5367
  0
LINE
  8
0
 10
-1.8573
 20
59.5367
 11
-1.8998
 21
59.6548
  0
LINE
  8
0
 10
-1.8998
 20
59.6548
 11
-1.93481
 21
59.7753
  0
LINE
  8
0
 10
-1.93481
 20
59.7753
 11
-1.96219
 21
59.8978
  0
LINE
  8
0
 10
-1.96219
 20
59.8978
 11
-1.98181
 21
60.0217
  0
LINE
  8
0
 10
-1.98181
 20
60.0217
 11
-1.99362
 21
60.1467
  0
LINE
  8
0
 10
-1.99362
 20
60.1467
 11
-1.99757
 21
60.2721
  0
LINE
  8
0
 10
-1.99757
 20
60.2721
 11
-1.99362
 21
60.3975
  0
LINE
  8
0
 10
-1.99362
 20
60.3975
 11
-1.98181
 21
60.5225
  0
LINE
  8
0
 10
-1.98181
 20
60.5225
 11
-1.96219
 21
60.6464
  0
LINE
  8
0
 10
-1.96219
 20
60.6464
 11
-1.93481
 21
60.7689
  0
LINE
  8
0
 10
-1.93481
 20
60.7689
 11
-1.8998
 21
60.8894
  0
LINE
  8
0
 10
-1.8998
 20
60.8894
 11
-1.8573
 21
61.0075
  0
LINE
  8
0
 10
-1.8573
 20
61.0075
 11
-1.80745
 21
61.1226
  0
LINE
  8
0
 10
-1.80745
 20
61.1226
 11
-1.75049
 21
61.2345
  0
LINE
  8
0
 10
-1.75049
 20
61.2345
 11
-1.6866
 21
61.3425
  0
LINE
  8
0
 10
-1.6866
 20
61.3425
 11
-1.61607
 21
61.4462
  0
LINE
  8
0
 10
-1.61607
 20
61.4462
 11
-1.53915
 21
61.5454
  0
LINE
  8
0
 10
-1.53915
 20
61.5454
 11
-1.45616
 21
61.6395
  0
LINE
  8
0
 10
-1.45616
 20
61.6395
 11
-1.36743
 21
61.7283
  0
LINE
  8
0
 10
-1.36743
 20
61.7283
 11
-1.2733
 21
61.8112
  0
LINE
  8
0
 10
-1.2733
 20
61.8112
 11
-1.17413
 21
61.8882
  0
LINE
  8
0
 10
-1.17413
 20
61.8882
 11
-1.07034
 21
61.9587
  0
LINE
  8
0
 10
-1.07034
 20
61.9587
 11
-0.962326
 21
62.0226
  0
LINE
  8
0
 10
-0.962326
 20
62.0226
 11
-0.850525
 21
62.0796
  0
LINE
  8
0
 10
-0.850525
 20
62.0796
 11
-0.735352
 21
62.1294
  0
LINE
  8
0
 10
-0.735352
 20
62.1294
 11
-0.617279
 21
62.1719
  0
LINE
  8
0
 10
-0.617279
 20
62.1719
 11
-0.496765
 21
62.2069
  0
LINE
  8
0
 10
-0.496765
 20
62.2069
 11
-0.374298
 21
62.2343
  0
LINE
  8
0
 10
-0.374298
 20
62.2343
 11
-0.250351
 21
62.2539
  0
LINE
  8
0
 10
-0.250351
 20
62.2539
 11
-0.125427
 21
62.2657
  0
LINE
  8
0
 10
-0.125427
 20
62.2657
 11
0
 21
62.2697
  0
LINE
  8
0
 10
0
 20
62.2697
 11
0.125427
 21
62.2657
  0
LINE
  8
0
 10
0.125427
 20
62.2657
 11
0.250351
 21
62.2539
  0
LINE
  8
0
 10
0.250351
 20
62.2539
 11
0.374298
 21
62.2343
  0
LINE
  8
0
 10
0.374298
 20
62.2343
 11
0.496765
 21
62.2069
  0
LINE
  8
0
 10
0.496765
 20
62.2069
 11
0.617279
 21
62.1719
  0
LINE
  8
0
 10
0.617279
 20
62.1719
 11
0.735352
 21
62.1294
  0
LINE
  8
0
 10
0.735352
 20
62.1294
 11
0.850525
 21
62.0796
  0
LINE
  8
0
 10
0.850525
 20
62.0796
 11
0.962326
 21
62.0226
  0
LINE
  8
0
 10
0.962326
 20
62.0226
 11
1.07034
 21
61.9587
  0
LINE
  8
0
 10
1.07034
 20
61.9587
 11
1.17413
 21
61.8882
  0
LINE
  8
0
 10
1.17413
 20
61.8882
 11
1.2733
 21
61.8112
  0
LINE
  8
0
 10
1.2733
 20
61.8112
 11
1.36743
 21
61.7283
  0
LINE
  8
0
 10
1.36743
 20
61.7283
 11
1.45616
 21
61.6395
  0
LINE
  8
0
 10
1.45616
 20
61.6395
 11
1.53915
 21
61.5454
  0
LINE
  8
0
 10
1.53915
 20
61.5454
 11
1.61607
 21
61.4462
  0
LINE
  8
0
 10
1.61607
 20
61.4462
 11
1.6866
 21
61.3425
  0
LINE
  8
0
 10
1.6866
 20
61.3425
 11
1.75049
 21
61.2345
  0
LINE
  8
0
 10
1.75049
 20
61.2345
 11
1.80745
 21
61.1226
  0
LINE
  8
0
 10
1.80745
 20
61.1226
 11
1.8573
 21
61.0075
  0
LINE
  8
0
 10
1.8573
 20
61.0075
 11
1.8998
 21
60.8894
  0
LINE
  8
0
 10
1.8998
 20
60.8894
 11
1.93481
 21
60.7689
  0
LINE
  8
0
 10
1.93481
 20
60.7689
 11
1.96219
 21
60.6464
  0
LINE
  8
0
 10
1.96219
 20
60.6464
 11
1.98181
 21
60.5225
  0
LINE
  8
0
 10
1.98181
 20
60.5225
 11
1.99362
 21
60.3975
  0
LINE
  8
0
 10
1.99362
 20
60.3975
 11
1.99757
 21
60.2721
  0
LINE
  8
0
 10
1.99757
 20
60.2721
 11
1.99362
 21
60.1467
  0
LINE
  8
0
 10
1.99362
 20
60.1467
 11
1.98181
 21
60.0217
  0
LINE
  8
0
 10
1.98181
 20
60.0217
 11
1.96219
 21
59.8978
  0
LINE
  8
0
 10
1.96219
 20
59.8978
 11
1.93481
 21
59.7753
  0
LINE
  8
0
 10
1.93481
 20
59.7753
 11
1.8998
 21
59.6548
  0
LINE
  8
0
 10
1.8998
 20
59.6548
 11
1.8573
 21
59.5367
  0
LINE
  8
0
 10
1.8573
 20
59.5367
 11
1.80745
 21
59.4216
  0
LINE
  8
0
 10
1.80745
 20
59.4216
 11
1.75049
 21
59.3098
  0
LINE
  8
0
 10
1.75049
 20
59.3098
 11
1.6866
 21
59.2018
  0
LINE
  8
0
 10
1.6866
 20
59.2018
 11
1.61607
 21
59.098
  0
LINE
  8
0
 10
1.61607
 20
59.098
 11
1.53915
 21
58.9988
  0
LINE
  8
0
 10
1.53915
 20
58.9988
 11
1.45616
 21
58.9047
  0
LINE
  8
0
 10
1.45616
 20
58.9047
 11
1.36743
 21
58.8159
  0
LINE
  8
0
 10
1.36743
 20
58.8159
 11
1.2733
 21
58.7329
  0
LINE
  8
0
 10
1.2733
 20
58.7329
 11
1.17413
 21
58.656
  0
LINE
  8
0
 10
1.17413
 20
58.656
 11
1.07034
 21
58.5855
  0
LINE
  8
0
 10
1.07034
 20
58.5855
 11
0.962326
 21
58.5216
  0
LINE
  8
0
 10
0.962326
 20
58.5216
 11
0.850525
 21
58.4646
  0
LINE
  8
0
 10
0.850525
 20
58.4646
 11
0.735352
 21
58.4148
  0
LINE
  8
0
 10
0.735352
 20
58.4148
 11
0.617279
 21
58.3723
  0
LINE
  8
0
 10
0.617279
 20
58.3723
 11
0.496765
 21
58.3373
  0
LINE
  8
0
 10
0.496765
 20
58.3373
 11
0.374298
 21
58.3099
  0
LINE
  8
0
 10
0.374298
 20
58.3099
 11
0.250351
 21
58.2903
  0
LINE
  8
0
 10
0.250351
 20
58.2903
 11
0.125427
 21
58.2785
  0
LINE
  8
0
 10
0.125427
 20
58.2785
 11
0
 21
58.2745
  0
LINE
  8
0
 10
0
 20
58.2745
 11
-0.125427
 21
58.2785
  0
LINE
  8
0
 10
-0.125427
 20
-62.2657
 11
-0.250351
 21
-62.2539
  0
LINE
  8
0
 10
-0.250351
 20
-62.2539
 11
-0.374298
 21
-62.2343
  0
LINE
  8
0
 10
-0.374298
 20
-62.2343
 11
-0.496765
 21
-62.2069
  0
LINE
  8
0
 10
-0.496765
 20
-62.2069
 11
-0.617279
 21
-62.1719
  0
LINE
  8
0
 10
-0.617279
 20
-62.1719
 11
-0.735352
 21
-62.1294
  0
LINE
  8
0
 10
-0.735352
 20
-62.1294
 11
-0.850525
 21
-62.0796
  0
LINE
  8
0
 10
-0.850525
 20
-62.0796
 11
-0.962326
 21
-62.0226
  0
LINE
  8
0
 10
-0.962326
 20
-62.0226
 11
-1.07034
 21
-61.9587
  0
LINE
  8
0
 10
-1.07034
 20
-61.9587
 11
-1.17413
 21
-61.8882
  0
LINE
  8
0
 10
-1.17413
 20
-61.8882
 11
-1.2733
 21
-61.8112
  0
LINE
  8
0
 10
-1.2733
 20
-61.8112
 11
-1.36743
 21
-61.7283
  0
LINE
  8
0
 10
-1.36743
 20
-61.7283
 11
-1.45616
 21
-61.6395
  0
LINE
  8
0
 10
-1.45616
 20
-61.6395
 11
-1.53915
 21
-61.5454
  0
LINE
  8
0
 10
-1.53915
 20
-61.5454
 11
-1.61607
 21
-61.4462
  0
LINE
  8
0
 10
-1.61607
 20
-61.4462
 11
-1.6866
 21
-61.3425
  0
LINE
  8
0
 10
-1.6866
 20
-61.3425
 11
-1.75049
 21
-61.2345
  0
LINE
  8
0
 10
-1.75049
 20
-61.2345
 11
-1.80745
 21
-61.1226
  0
LINE
  8
0
 10
-1.80745
 20
-61.1226
 11
-1.8573
 21
-61.0075
  0
LINE
  8
0
 10
-1.8573
 20
-61.0075
 11
-1.8998
 21
-60.8894
  0
LINE
  8
0
 10
-1.8998
 20
-60.8894
 11
-1.93481
 21
-60.7689
  0
LINE
  8
0
 10
-1.93481
 20
-60.7689
 11
-1.96219
 21
-60.6464
  0
LINE
  8
0
 10
-1.96219
 20
-60.6464
 11
-1.98181
 21
-60.5225
  0
LINE
  8
0
 10
-1.98181
 20
-60.5225
 11
-1.99362
 21
-60.3975
  0
LINE
  8
0
 10
-1.99362
 20
-60.3975
 11
-1.99757
 21
-60.2721
  0
LINE
  8
0
 10
-1.99757
 20
-60.2721
 11
-1.99362
 21
-60.1467
  0
LINE
  8
0
 10
-1.99362
 20
-60.1467
 11
-1.98181
 21
-60.0217
  0
LINE
  8
0
 10
-1.98181
 20
-60.0217
 11
-1.96219
 21
-59.8978
  0
LINE
  8
0
 10
-1.96219
 20
-59.8978
 11
-1.93481
 21
-59.7753
  0
LINE
  8
0
 10
-1.93481
 20
-59.7753
 11
-1.8998
 21
-59.6548
  0
LINE
  8
0
 10
-1.8998
 20
-59.6548
 11
-1.8573
 21
-59.5367
  0
LINE
  8
0
 10
-1.8573
 20
-59.5367
 11
-1.80745
 21
-59.4216
  0
LINE
  8
0
 10
-1.80745
 20
-59.4216
 11
-1.75049
 21
-59.3098
  0
LINE
  8
0
 10
-1.75049
 20
-59.3098
 11
-1.6866
 21
-59.2018
  0
LINE
  8
0
 10
-1.6866
 20
-59.2018
 11
-1.61607
 21
-59.098
  0
LINE
  8
0
 10
-1.61607
 20
-59.098
 11
-1.53915
 21
-58.9988
  0
LINE
  8
0
 10
-1.53915
 20
-58.9988
 11
-1.45616
 21
-58.9047
  0
LINE
  8
0
 10
-1.45616
 20
-58.9047
 11
-1.36743
 21
-58.8159
  0
LINE
  8
0
 10
-1.36743
 20
-58.8159
 11
-1.2733
 21
-58.7329
  0
LINE
  8
0
 10
-1.2733
 20
-58.7329
 11
-1.17413
 21
-58.656
  0
LINE
  8
0
 10
-1.17413
 20
-58.656
 11
-1.07034
 21
-58.5855
  0
LINE
  8
0
 10
-1.07034
 20
-58.5855
 11
-0.962326
 21
-58.5216
  0
LINE
  8
0
 10
-0.962326
 20
-58.5216
 11
-0.850525
 21
-58.4646
  0
LINE
  8
0
 10
-0.850525
 20
-58.4646
 11
-0.735352
 21
-58.4148
  0
LINE
  8
0
 10
-0.735352
 20
-58.4148
 11
-0.617279
 21
-58.3723
  0
LINE
  8
0
 10
-0.617279
 20
-58.3723
 11
-0.496765
 21
-58.3373
  0
LINE
  8
0
 10
-0.496765
 20
-58.3373
 11
-0.374298
 21
-58.3099
  0
LINE
  8
0
 10
-0.374298
 20
-58.3099
 11
-0.250351
 21
-58.2903
  0
LINE
  8
0
 10
-0.250351
 20
-58.2903
 11
-0.125427
 21
-58.2785
  0
LINE
  8
0
 10
-0.125427
 20
-58.2785
 11
0
 21
-58.2745
  0
LINE
  8
0
 10
0
 20
-58.2745
 11
0.125427
 21
-58.2785
  0
LINE
  8
0
 10
0.125427
 20
-58.2785
 11
0.250351
 21
-58.2903
  0
LINE
  8
0
 10
0.250351
 20
-58.2903
 11
0.374298
 21
-58.3099
  0
LINE
  8
0
 10
0.374298
 20
-58.3099
 11
0.496765
 21
-58.3373
  0
LINE
  8
0
 10
0.496765
 20
-58.3373
 11
0.617279
 21
-58.3723
  0
LINE
  8
0
 10
0.617279
 20
-58.3723
 11
0.735352
 21
-58.4148
  0
LINE
  8
0
 10
0.735352
 20
-58.4148
 11
0.850525
 21
-58.4646
  0
LINE
  8
0
 10
0.850525
 20
-58.4646
 11
0.962326
 21
-58.5216
  0
LINE
  8
0
 10
0.962326
 20
-58.5216
 11
1.07034
 21
-58.5855
  0
LINE
  8
0
 10
1.07034
 20
-58.5855
 11
1.17413
 21
-58.656
  0
LINE
  8
0
 10
1.17413
 20
-58.656
 11
1.2733
 21
-58.7329
  0
LINE
  8
0
 10
1.2733
 20
-58.7329
 11
1.36743
 21
-58.8159
  0
LINE
  8
0
 10
1.36743
 20
-58.8159
 11
1.45616
 21
-58.9047
  0
LINE
  8
0
 10
1.45616
 20
-58.9047
 11
1.53915
 21
-58.9988
  0
LINE
  8
0
 10
1.53915
 20
-58.9988
 11
1.61607
 21
-59.098
  0
LINE
  8
0
 10
1.61607
 20
-59.098
 11
1.6866
 21
-59.2018
  0
LINE
  8
0
 10
1.6866
 20
-59.2018
 11
1.75049
 21
-59.3098
  0
LINE
  8
0
 10
1.75049
 20
-59.3098
 11
1.80745
 21
-59.4216
  0
LINE
  8
0
 10
1.80745
 20
-59.4216
 11
1.8573
 21
-59.5367
  0
LINE
  8
0
 10
1.8573
 20
-59.5367
 11
1.8998
 21
-59.6548
  0
LINE
  8
0
 10
1.8998
 20
-59.6548
 11
1.93481
 21
-59.7753
  0
LINE
  8
0
 10
1.93481
 20
-59.7753
 11
1.96219
 21
-59.8978
  0
LINE
  8
0
 10
1.96219
 20
-59.8978
 11
1.98181
 21
-60.0217
  0
LINE
  8
0
 10
1.98181
 20
-60.0217
 11
1.99362
 21
-60.1467
  0
LINE
  8
0
 10
1.99362
 20
-60.1467
 11
1.99757
 21
-60.2721
  0
LINE
  8
0
 10
1.99757
 20
-60.2721
 11
1.99362
 21
-60.3975
  0
LINE
  8
0
 10
1.99362
 20
-60.3975
 11
1.98181
 21
-60.5225
  0
LINE
  8
0
 10
1.98181
 20
-60.5225
 11
1.96219
 21
-60.6464
  0
LINE
  8
0
 10
1.96219
 20
-60.6464
 11
1.93481
 21
-60.7689
  0
LINE
  8
0
 10
1.93481
 20
-60.7689
 11
1.8998
 21
-60.8894
  0
LINE
  8
0
 10
1.8998
 20
-60.8894
 11
1.8573
 21
-61.0075
  0
LINE
  8
0
 10
1.8573
 20
-61.0075
 11
1.80745
 21
-61.1226
  0
LINE
  8
0
 10
1.80745
 20
-61.1226
 11
1.75049
 21
-61.2345
  0
LINE
  8
0
 10
1.75049
 20
-61.2345
 11
1.6866
 21
-61.3425
  0
LINE
  8
0
 10
1.6866
 20
-61.3425
 11
1.61607
 21
-61.4462
  0
LINE
  8
0
 10
1.61607
 20
-61.4462
 11
1.53915
 21
-61.5454
  0
LINE
  8
0
 10
1.53915
 20
-61.5454
 11
1.45616
 21
-61.6395
  0
LINE
  8
0
 10
1.45616
 20
-61.6395
 11
1.36743
 21
-61.7283
  0
LINE
  8
0
 10
1.36743
 20
-61.7283
 11
1.2733
 21
-61.8112
  0
LINE
  8
0
 10
1.2733
 20
-61.8112
 11
1.17413
 21
-61.8882
  0
LINE
  8
0
 10
1.17413
 20
-61.8882
 11
1.07034
 21
-61.9587
  0
LINE
  8
0
 10
1.07034
 20
-61.9587
 11
0.962326
 21
-62.0226
  0
LINE
  8
0
 10
0.962326
 20
-62.0226
 11
0.850525
 21
-62.0796
  0
LINE
  8
0
 10
0.850525
 20
-62.0796
 11
0.735352
 21
-62.1294
  0
LINE
  8
0
 10
0.735352
 20
-62.1294
 11
0.617279
 21
-62.1719
  0
LINE
  8
0
 10
0.617279
 20
-62.1719
 11
0.496765
 21
-62.2069
  0
LINE
  8
0
 10
0.496765
 20
-62.2069
 11
0.374298
 21
-62.2343
  0
LINE
  8
0
 10
0.374298
 20
-62.2343
 11
0.250351
 21
-62.2539
  0
LINE
  8
0
 10
0.250351
 20
-62.2539
 11
0.125427
 21
-62.2657
  0
LINE
  8
0
 10
0.125427
 20
-62.2657
 11
0
 21
-62.2697
  0
LINE
  8
0
 10
0
 20
-62.2697
 11
-0.125427
 21
-62.2657
  0
LINE
  8
0
 10
-11
 20
-61.25
 11
-8
 21
-59.25
  0
LINE
  8
0
 10
-8
 20
-59.25
 11
-8
 21
-60.25
  0
LINE
  8
0
 10
-8
 20
-60.25
 11
-5
 21
-60.25
  0
LINE
  8
0
 10
-5
 20
-60.25
 11
-5
 21
-62.25
  0
LINE
  8
0
 10
-5
 20
-62.25
 11
-8
 21
-62.25
  0
LINE
  8
0
 10
-8
 20
-62.25
 11
-8
 21
-63.25
  0
LINE
  8
0
 10
-8
 20
-63.25
 11
-11
 21
-61.25
  0
LINE
  8
0
 10
9.39957
 20
-63.2436
 11
9.27463
 21
-63.2318
  0
LINE
  8
0
 10
9.27463
 20
-63.2318
 11
9.15068
 21
-63.2122
  0
LINE
  8
0
 10
9.15068
 20
-63.2122
 11
9.02821
 21
-63.1848
  0
LINE
  8
0
 10
9.02821
 20
-63.1848
 11
8.9077
 21
-63.1498
  0
LINE
  8
0
 10
8.9077
 20
-63.1498
 11
8.78964
 21
-63.1073
  0
LINE
  8
0
 10
8.78964
 20
-63.1073
 11
8.67447
 21
-63.0574
  0
LINE
  8
0
 10
8.67447
 20
-63.0574
 11
8.56265
 21
-63.0005
  0
LINE
  8
0
 10
8.56265
 20
-63.0005
 11
8.45464
 21
-62.9366
  0
LINE
  8
0
 10
8.45464
 20
-62.9366
 11
8.35085
 21
-62.8661
  0
LINE
  8
0
 10
8.35085
 20
-62.8661
 11
8.25169
 21
-62.7892
  0
LINE
  8
0
 10
8.25169
 20
-62.7892
 11
8.15756
 21
-62.7062
  0
LINE
  8
0
 10
8.15756
 20
-62.7062
 11
8.06882
 21
-62.6174
  0
LINE
  8
0
 10
8.06882
 20
-62.6174
 11
7.98584
 21
-62.5233
  0
LINE
  8
0
 10
7.98584
 20
-62.5233
 11
7.90892
 21
-62.4241
  0
LINE
  8
0
 10
7.90892
 20
-62.4241
 11
7.83838
 21
-62.3203
  0
LINE
  8
0
 10
7.83838
 20
-62.3203
 11
7.77451
 21
-62.2123
  0
LINE
  8
0
 10
7.77451
 20
-62.2123
 11
7.71753
 21
-62.1005
  0
LINE
  8
0
 10
7.71753
 20
-62.1005
 11
7.66769
 21
-61.9854
  0
LINE
  8
0
 10
7.66769
 20
-61.9854
 11
7.62518
 21
-61.8673
  0
LINE
  8
0
 10
7.62518
 20
-61.8673
 11
7.59018
 21
-61.7468
  0
LINE
  8
0
 10
7.59018
 20
-61.7468
 11
7.56281
 21
-61.6243
  0
LINE
  8
0
 10
7.56281
 20
-61.6243
 11
7.54317
 21
-61.5004
  0
LINE
  8
0
 10
7.54317
 20
-61.5004
 11
7.53136
 21
-61.3754
  0
LINE
  8
0
 10
7.53136
 20
-61.3754
 11
7.52742
 21
-61.25
  0
LINE
  8
0
 10
7.52742
 20
-61.25
 11
7.53136
 21
-61.1246
  0
LINE
  8
0
 10
7.53136
 20
-61.1246
 11
7.54317
 21
-60.9996
  0
LINE
  8
0
 10
7.54317
 20
-60.9996
 11
7.56281
 21
-60.8757
  0
LINE
  8
0
 10
7.56281
 20
-60.8757
 11
7.59018
 21
-60.7532
  0
LINE
  8
0
 10
7.59018
 20
-60.7532
 11
7.62518
 21
-60.6327
  0
LINE
  8
0
 10
7.62518
 20
-60.6327
 11
7.66769
 21
-60.5146
  0
LINE
  8
0
 10
7.66769
 20
-60.5146
 11
7.71753
 21
-60.3995
  0
LINE
  8
0
 10
7.71753
 20
-60.3995
 11
7.77451
 21
-60.2877
  0
LINE
  8
0
 10
7.77451
 20
-60.2877
 11
7.83838
 21
-60.1797
  0
LINE
  8
0
 10
7.83838
 20
-60.1797
 11
7.90892
 21
-60.0759
  0
LINE
  8
0
 10
7.90892
 20
-60.0759
 11
7.98584
 21
-59.9767
  0
LINE
  8
0
 10
7.98584
 20
-59.9767
 11
8.06882
 21
-59.8826
  0
LINE
  8
0
 10
8.06882
 20
-59.8826
 11
8.15756
 21
-59.7938
  0
LINE
  8
0
 10
8.15756
 20
-59.7938
 11
8.25169
 21
-59.7108
  0
LINE
  8
0
 10
8.25169
 20
-59.7108
 11
8.35085
 21
-59.6339
  0
LINE
  8
0
 10
8.35085
 20
-59.6339
 11
8.45464
 21
-59.5634
  0
LINE
  8
0
 10
8.45464
 20
-59.5634
 11
8.56265
 21
-59.4995
  0
LINE
  8
0
 10
8.56265
 20
-59.4995
 11
8.67447
 21
-59.4426
  0
LINE
  8
0
 10
8.67447
 20
-59.4426
 11
8.78964
 21
-59.3927
  0
LINE
  8
0
 10
8.78964
 20
-59.3927
 11
8.9077
 21
-59.3502
  0
LINE
  8
0
 10
8.9077
 20
-59.3502
 11
9.02821
 21
-59.3152
  0
LINE
  8
0
 10
9.02821
 20
-59.3152
 11
9.15068
 21
-59.2878
  0
LINE
  8
0
 10
9.15068
 20
-59.2878
 11
9.27463
 21
-59.2682
  0
LINE
  8
0
 10
9.27463
 20
-59.2682
 11
9.39957
 21
-59.2564
  0
LINE
  8
0
 10
9.39957
 20
-59.2564
 11
9.52499
 21
-59.2524
  0
LINE
  8
0
 10
9.52499
 20
-59.2524
 11
9.65042
 21
-59.2564
  0
LINE
  8
0
 10
9.65042
 20
-59.2564
 11
9.77536
 21
-59.2682
  0
LINE
  8
0
 10
9.77536
 20
-59.2682
 11
9.89931
 21
-59.2878
  0
LINE
  8
0
 10
9.89931
 20
-59.2878
 11
10.0218
 21
-59.3152
  0
LINE
  8
0
 10
10.0218
 20
-59.3152
 11
10.1423
 21
-59.3502
  0
LINE
  8
0
 10
10.1423
 20
-59.3502
 11
10.2603
 21
-59.3927
  0
LINE
  8
0
 10
10.2603
 20
-59.3927
 11
10.3755
 21
-59.4426
  0
LINE
  8
0
 10
10.3755
 20
-59.4426
 11
10.4873
 21
-59.4995
  0
LINE
  8
0
 10
10.4873
 20
-59.4995
 11
10.5954
 21
-59.5634
  0
LINE
  8
0
 10
10.5954
 20
-59.5634
 11
10.6991
 21
-59.6339
  0
LINE
  8
0
 10
10.6991
 20
-59.6339
 11
10.7983
 21
-59.7108
  0
LINE
  8
0
 10
10.7983
 20
-59.7108
 11
10.8924
 21
-59.7938
  0
LINE
  8
0
 10
10.8924
 20
-59.7938
 11
10.9812
 21
-59.8826
  0
LINE
  8
0
 10
10.9812
 20
-59.8826
 11
11.0641
 21
-59.9767
  0
LINE
  8
0
 10
11.0641
 20
-59.9767
 11
11.1411
 21
-60.0759
  0
LINE
  8
0
 10
11.1411
 20
-60.0759
 11
11.2116
 21
-60.1797
  0
LINE
  8
0
 10
11.2116
 20
-60.1797
 11
11.2755
 21
-60.2877
  0
LINE
  8
0
 10
11.2755
 20
-60.2877
 11
11.3325
 21
-60.3995
  0
LINE
  8
0
 10
11.3325
 20
-60.3995
 11
11.3823
 21
-60.5146
  0
LINE
  8
0
 10
11.3823
 20
-60.5146
 11
11.4248
 21
-60.6327
  0
LINE
  8
0
 10
11.4248
 20
-60.6327
 11
11.4598
 21
-60.7532
  0
LINE
  8
0
 10
11.4598
 20
-60.7532
 11
11.4872
 21
-60.8757
  0
LINE
  8
0
 10
11.4872
 20
-60.8757
 11
11.5068
 21
-60.9996
  0
LINE
  8
0
 10
11.5068
 20
-60.9996
 11
11.5186
 21
-61.1246
  0
LINE
  8
0
 10
11.5186
 20
-61.1246
 11
11.5226
 21
-61.25
  0
LINE
  8
0
 10
11.5226
 20
-61.25
 11
11.5186
 21
-61.3754
  0
LINE
  8
0
 10
11.5186
 20
-61.3754
 11
11.5068
 21
-61.5004
  0
LINE
  8
0
 10
11.5068
 20
-61.5004
 11
11.4872
 21
-61.6243
  0
LINE
  8
0
 10
11.4872
 20
-61.6243
 11
11.4598
 21
-61.7468
  0
LINE
  8
0
 10
11.4598
 20
-61.7468
 11
11.4248
 21
-61.8673
  0
LINE
  8
0
 10
11.4248
 20
-61.8673
 11
11.3823
 21
-61.9854
  0
LINE
  8
0
 10
11.3823
 20
-61.9854
 11
11.3325
 21
-62.1005
  0
LINE
  8
0
 10
11.3325
 20
-62.1005
 11
11.2755
 21
-62.2123
  0
LINE
  8
0
 10
11.2755
 20
-62.2123
 11
11.2116
 21
-62.3203
  0
LINE
  8
0
 10
11.2116
 20
-62.3203
 11
11.1411
 21
-62.4241
  0
LINE
  8
0
 10
11.1411
 20
-62.4241
 11
11.0641
 21
-62.5233
  0
LINE
  8
0
 10
11.0641
 20
-62.5233
 11
10.9812
 21
-62.6174
  0
LINE
  8
0
 10
10.9812
 20
-62.6174
 11
10.8924
 21
-62.7062
  0
LINE
  8
0
 10
10.8924
 20
-62.7062
 11
10.7983
 21
-62.7892
  0
LINE
  8
0
 10
10.7983
 20
-62.7892
 11
10.6991
 21
-62.8661
  0
LINE
  8
0
 10
10.6991
 20
-62.8661
 11
10.5954
 21
-62.9366
  0
LINE
  8
0
 10
10.5954
 20
-62.9366
 11
10.4873
 21
-63.0005
  0
LINE
  8
0
 10
10.4873
 20
-63.0005
 11
10.3755
 21
-63.0574
  0
LINE
  8
0
 10
10.3755
 20
-63.0574
 11
10.2603
 21
-63.1073
  0
LINE
  8
0
 10
10.2603
 20
-63.1073
 11
10.1423
 21
-63.1498
  0
LINE
  8
0
 10
10.1423
 20
-63.1498
 11
10.0218
 21
-63.1848
  0
LINE
  8
0
 10
10.0218
 20
-63.1848
 11
9.89931
 21
-63.2122
  0
LINE
  8
0
 10
9.89931
 20
-63.2122
 11
9.77536
 21
-63.2318
  0
LINE
  8
0
 10
9.77536
 20
-63.2318
 11
9.65042
 21
-63.2436
  0
LINE
  8
0
 10
9.65042
 20
-63.2436
 11
9.52499
 21
-63.2476
  0
LINE
  8
0
 10
9.52499
 20
-63.2476
 11
9.39957
 21
-63.2436
  0
ENDSEC
  0
SECTION
  2
OBJECTS
  0
DICTIONARY
  0
ENDSEC
  0
EOF
