<?xml version="1.0" standalone="no"?>
<!DOCTYPE svg PUBLIC "-//W3C//DTD SVG 1.1//EN" "http://www.w3.org/Graphics/SVG/1.1/DTD/svg11.dtd">
<svg width="26mm" height="8mm" viewBox="-13 -4 26 8" xmlns="http://www.w3.org/2000/svg" version="1.1">
<title>OpenSCAD Model</title>
<path d="
M 12.7,1.4986 L 10.8458,1.4986 L 10.8458,2.57809 L 8.20421,2.57809 L 8.20421,1.4986 L 6.9342,1.4986
 L 6.9342,-1.4986 L 8.20421,-1.4986 L 8.20421,-2.57809 L 10.8458,-2.57809 L 10.8458,-1.4986 L 12.7,-1.4986
 L 12.7,-3.69569 L 1.4986,-3.69569 L 1.4986,-2.29871 L 2.57809,-2.29871 L 2.57809,0.34288 L 1.4986,0.34288
 L 1.4986,1.61288 L -1.4986,1.61288 L -1.4986,0.34288 L -2.57809,0.34288 L -2.57809,-2.29871 L -1.4986,-2.29871
 L -1.4986,-3.69569 L -12.7,-3.69569 L -12.7,-1.4986 L -10.8458,-1.4986 L -10.8458,-2.57809 L -8.20421,-2.57809
 L -8.20421,-1.4986 L -6.9342,-1.4986 L -6.9342,1.4986 L -8.20421,1.4986 L -8.20421,2.57809 L -10.8458,2.57809
 L -10.8458,1.4986 L -12.7,1.4986 L -12.7,3.69569 L 12.7,3.69569 z
M 0.125427,1.01573 L 0.250351,1.00392 L 0.374298,0.984283 L 0.496765,0.956909 L 0.617279,0.921906 L 0.735352,0.879395
 L 0.850525,0.829559 L 0.962326,0.772583 L 1.07034,0.70871 L 1.17413,0.638168 L 1.2733,0.561249 L 1.36743,0.478256
 L 1.45616,0.389526 L 1.53915,0.295395 L 1.61607,0.196243 L 1.6866,0.092453 L 1.75049,-0.0155487 L 1.80745,-0.127365
 L 1.8573,-0.242538 L 1.8998,-0.360611 L 1.93481,-0.48111 L 1.96219,-0.603577 L 1.98181,-0.727524 L 1.99362,-0.852463
 L 1.99757,-0.97789 L 1.99362,-1.10332 L 1.98181,-1.22826 L 1.96219,-1.3522 L 1.93481,-1.47467 L 1.8998,-1.59518
 L 1.8573,-1.71326 L 1.80745,-1.82841 L 1.75049,-1.94023 L 1.6866,-2.04825 L 1.61607,-2.15204 L 1.53915,-2.25119
 L 1.45616,-2.34532 L 1.36743,-2.43407 L 1.2733,-2.51706 L 1.17413,-2.59396 L 1.07034,-2.66451 L 0.962326,-2.72838
 L 0.850525,-2.78535 L 0.735352,-2.83519 L 0.617279,-2.8777 L 0.496765,-2.9127 L 0.374298,-2.94009 L 0.250351,-2.95972
 L 0.125427,-2.97153 L 0,-2.97546 L -0.125427,-2.97153 L -0.250351,-2.95972 L -0.374298,-2.94009 L -0.496765,-2.9127
 L -0.617279,-2.8777 L -0.735352,-2.83519 L -0.850525,-2.78535 L -0.962326,-2.72838 L -1.07034,-2.66451 L -1.17413,-2.59396
 L -1.2733,-2.51706 L -1.36743,-2.43407 L -1.45616,-2.34532 L -1.53915,-2.25119 L -1.61607,-2.15204 L -1.6866,-2.04825
 L -1.75049,-1.94023 L -1.80745,-1.82841 L -1.8573,-1.71326 L -1.8998,-1.59518 L -1.93481,-1.47467 L -1.96219,-1.3522
 L -1.98181,-1.22826 L -1.99362,-1.10332 L -1.99757,-0.97789 L -1.99362,-0.852463 L -1.98181,-0.727524 L -1.96219,-0.603577
 L -1.93481,-0.48111 L -1.8998,-0.360611 L -1.8573,-0.242538 L -1.80745,-0.127365 L -1.75049,-0.0155487 L -1.6866,0.092453
 L -1.61607,0.196243 L -1.53915,0.295395 L -1.45616,0.389526 L -1.36743,0.478256 L -1.2733,0.561249 L -1.17413,0.638168
 L -1.07034,0.70871 L -0.962326,0.772583 L -0.850525,0.829559 L -0.735352,0.879395 L -0.617279,0.921906 L -0.496765,0.956909
 L -0.374298,0.984283 L -0.250351,1.00392 L -0.125427,1.01573 L 0,1.01967 z
M -9.39957,1.99362 L -9.27463,1.98181 L -9.15068,1.96219 L -9.02821,1.93481 L -8.9077,1.8998 L -8.78964,1.8573
 L -8.67447,1.80745 L -8.56265,1.75049 L -8.45464,1.6866 L -8.35085,1.61607 L -8.25169,1.53915 L -8.15756,1.45616
 L -8.06882,1.36743 L -7.98584,1.2733 L -7.90892,1.17413 L -7.83838,1.07034 L -7.77451,0.962326 L -7.71753,0.850525
 L -7.66769,0.735352 L -7.62518,0.617279 L -7.59018,0.496765 L -7.56281,0.374298 L -7.54317,0.250351 L -7.53136,0.125427
 L -7.52742,-0 L -7.53136,-0.125427 L -7.54317,-0.250351 L -7.56281,-0.374298 L -7.59018,-0.496765 L -7.62518,-0.617279
 L -7.66769,-0.735352 L -7.71753,-0.850525 L -7.77451,-0.962326 L -7.83838,-1.07034 L -7.90892,-1.17413 L -7.98584,-1.2733
 L -8.06882,-1.36743 L -8.15756,-1.45616 L -8.25169,-1.53915 L -8.35085,-1.61607 L -8.45464,-1.6866 L -8.56265,-1.75049
 L -8.67447,-1.80745 L -8.78964,-1.8573 L -8.9077,-1.8998 L -9.02821,-1.93481 L -9.15068,-1.96219 L -9.27463,-1.98181
 L -9.39957,-1.99362 L -9.52499,-1.99757 L -9.65042,-1.99362 L -9.77536,-1.98181 L -9.89931,-1.96219 L -10.0218,-1.93481
 L -10.1423,-1.8998 L -10.2603,-1.8573 L -10.3755,-1.80745 L -10.4873,-1.75049 L -10.5954,-1.6866 L -10.6991,-1.61607
 L -10.7983,-1.53915 L -10.8924,-1.45616 L -10.9812,-1.36743 L -11.0641,-1.2733 L -11.1411,-1.17413 L -11.2116,-1.07034
 L -11.2755,-0.962326 L -11.3325,-0.850525 L -11.3823,-0.735352 L -11.4248,-0.617279 L -11.4598,-0.496765 L -11.4872,-0.374298
 L -11.5068,-0.250351 L -11.5186,-0.125427 L -11.5226,-0 L -11.5186,0.125427 L -11.5068,0.250351 L -11.4872,0.374298
 L -11.4598,0.496765 L -11.4248,0.617279 L -11.3823,0.735352 L -11.3325,0.850525 L -11.2755,0.962326 L -11.2116,1.07034
 L -11.1411,1.17413 L -11.0641,1.2733 L -10.9812,1.36743 L -10.8924,1.45616 L -10.7983,1.53915 L -10.6991,1.61607
 L -10.5954,1.6866 L -10.4873,1.75049 L -10.3755,1.80745 L -10.2603,1.8573 L -10.1423,1.8998 L -10.0218,1.93481
 L -9.89931,1.96219 L -9.77536,1.98181 L -9.65042,1.99362 L -9.52499,1.99757 z
M 9.65042,1.99362 L 9.77536,1.98181 L 9.89931,1.96219 L 10.0218,1.93481 L 10.1423,1.8998 L 10.2603,1.8573
 L 10.3755,1.80745 L 10.4873,1.75049 L 10.5954,1.6866 L 10.6991,1.61607 L 10.7983,1.53915 L 10.8924,1.45616
 L 10.9812,1.36743 L 11.0641,1.2733 L 11.1411,1.17413 L 11.2116,1.07034 L 11.2755,0.962326 L 11.3325,0.850525
 L 11.3823,0.735352 L 11.4248,0.617279 L 11.4598,0.496765 L 11.4872,0.374298 L 11.5068,0.250351 L 11.5186,0.125427
 L 11.5226,-0 L 11.5186,-0.125427 L 11.5068,-0.250351 L 11.4872,-0.374298 L 11.4598,-0.496765 L 11.4248,-0.617279
 L 11.3823,-0.735352 L 11.3325,-0.850525 L 11.2755,-0.962326 L 11.2116,-1.07034 L 11.1411,-1.17413 L 11.0641,-1.2733
 L 10.9812,-1.36743 L 10.8924,-1.45616 L 10.7983,-1.53915 L 10.6991,-1.61607 L 10.5954,-1.6866 L 10.4873,-1.75049
 L 10.3755,-1.80745 L 10.2603,-1.8573 L 10.1423,-1.8998 L 10.0218,-1.93481 L 9.89931,-1.96219 L 9.77536,-1.98181
 L 9.65042,-1.99362 L 9.52499,-1.99757 L 9.39957,-1.99362 L 9.27463,-1.98181 L 9.15068,-1.96219 L 9.02821,-1.93481
 L 8.9077,-1.8998 L 8.78964,-1.8573 L 8.67447,-1.80745 L 8.56265,-1.75049 L 8.45464,-1.6866 L 8.35085,-1.61607
 L 8.25169,-1.53915 L 8.15756,-1.45616 L 8.06882,-1.36743 L 7.98584,-1.2733 L 7.90892,-1.17413 L 7.83838,-1.07034
 L 7.77451,-0.962326 L 7.71753,-0.850525 L 7.66769,-0.735352 L 7.62518,-0.617279 L 7.59018,-0.496765 L 7.56281,-0.374298
 L 7.54317,-0.250351 L 7.53136,-0.125427 L 7.52742,-0 L 7.53136,0.125427 L 7.54317,0.250351 L 7.56281,0.374298
 L 7.59018,0.496765 L 7.62518,0.617279 L 7.66769,0.735352 L 7.71753,0.850525 L 7.77451,0.962326 L 7.83838,1.07034
 L 7.90892,1.17413 L 7.98584,1.2733 L 8.06882,1.36743 L 8.15756,1.45616 L 8.25169,1.53915 L 8.35085,1.61607
 L 8.45464,1.6866 L 8.56265,1.75049 L 8.67447,1.80745 L 8.78964,1.8573 L 8.9077,1.8998 L 9.02821,1.93481
 L 9.15068,1.96219 L 9.27463,1.98181 L 9.39957,1.99362 L 9.52499,1.99757 z
" stroke="black" fill="lightgray" stroke-width="0.5"/>
</svg>
