<?xml version="1.0" standalone="no"?>
<!DOCTYPE svg PUBLIC "-//W3C//DTD SVG 1.1//EN" "http://www.w3.org/Graphics/SVG/1.1/DTD/svg11.dtd">
<svg width="26mm" height="130mm" viewBox="-13 -65 26 130" xmlns="http://www.w3.org/2000/svg" version="1.1">
<title>OpenSCAD Model</title>
<path d="
M 10.8471,64.9455 L 10.8521,64.9457 L 10.9682,64.942 L 11.0837,64.9311 L 11.1984,64.913 L 11.3117,64.8876
 L 11.4232,64.8553 L 11.5324,64.8159 L 11.6389,64.7698 L 11.7424,64.7171 L 11.8423,64.658 L 11.9383,64.5928
 L 12.03,64.5216 L 12.1171,64.4449 L 12.1992,64.3628 L 12.2759,64.2757 L 12.3471,64.184 L 12.4123,64.088
 L 12.4714,63.9881 L 12.5241,63.8846 L 12.5702,63.7781 L 12.6095,63.6689 L 12.6419,63.5574 L 12.6673,63.4441
 L 12.6854,63.3295 L 12.6963,63.2139 L 12.7,63.0979 L 12.6998,63.0928 L 12.7,63.0928 L 12.7,59.4072
 L 12.6998,59.4072 L 12.7,59.4021 L 12.6963,59.2861 L 12.6854,59.1705 L 12.6673,59.0559 L 12.6419,58.9426
 L 12.6095,58.8311 L 12.5702,58.7219 L 12.5241,58.6154 L 12.4714,58.5119 L 12.4123,58.412 L 12.3471,58.316
 L 12.2759,58.2243 L 12.1992,58.1372 L 12.1171,58.0551 L 12.03,57.9784 L 11.9383,57.9072 L 11.8423,57.842
 L 11.7424,57.7829 L 11.6389,57.7302 L 11.5324,57.6841 L 11.4232,57.6447 L 11.3117,57.6124 L 11.1984,57.587
 L 11.0837,57.5689 L 10.9682,57.558 L 10.8521,57.5543 L 10.8471,57.5545 L 10.8471,57.5543 L 5,57.5543
 L 5,-57.5543 L 10.8471,-57.5543 L 10.8471,-57.5545 L 10.8521,-57.5543 L 10.9682,-57.558 L 11.0837,-57.5689
 L 11.1984,-57.587 L 11.3117,-57.6124 L 11.4232,-57.6447 L 11.5324,-57.6841 L 11.6389,-57.7302 L 11.7424,-57.7829
 L 11.8423,-57.842 L 11.9383,-57.9072 L 12.03,-57.9784 L 12.1171,-58.0551 L 12.1992,-58.1372 L 12.2759,-58.2243
 L 12.3471,-58.316 L 12.4123,-58.412 L 12.4714,-58.5119 L 12.5241,-58.6154 L 12.5702,-58.7219 L 12.6095,-58.8311
 L 12.6419,-58.9426 L 12.6673,-59.0559 L 12.6854,-59.1705 L 12.6963,-59.2861 L 12.7,-59.4021 L 12.6998,-59.4072
 L 12.7,-59.4072 L 12.7,-63.0928 L 12.6998,-63.0928 L 12.7,-63.0979 L 12.6963,-63.2139 L 12.6854,-63.3295
 L 12.6673,-63.4441 L 12.6419,-63.5574 L 12.6095,-63.6689 L 12.5702,-63.7781 L 12.5241,-63.8846 L 12.4714,-63.9881
 L 12.4123,-64.088 L 12.3471,-64.184 L 12.2759,-64.2757 L 12.1992,-64.3628 L 12.1171,-64.4449 L 12.03,-64.5216
 L 11.9383,-64.5928 L 11.8423,-64.658 L 11.7424,-64.7171 L 11.6389,-64.7698 L 11.5324,-64.8159 L 11.4232,-64.8553
 L 11.3117,-64.8876 L 11.1984,-64.913 L 11.0837,-64.9311 L 10.9682,-64.942 L 10.8521,-64.9457 L 10.8471,-64.9455
 L 10.8471,-64.9457 L -10.8471,-64.9457 L -10.8471,-64.9455 L -10.8521,-64.9457 L -10.9682,-64.942 L -11.0837,-64.9311
 L -11.1984,-64.913 L -11.3117,-64.8876 L -11.4232,-64.8553 L -11.5324,-64.8159 L -11.6389,-64.7698 L -11.7424,-64.7171
 L -11.8423,-64.658 L -11.9383,-64.5928 L -12.03,-64.5216 L -12.1171,-64.4449 L -12.1992,-64.3628 L -12.2759,-64.2757
 L -12.3471,-64.184 L -12.4123,-64.088 L -12.4714,-63.9881 L -12.5241,-63.8846 L -12.5702,-63.7781 L -12.6095,-63.6689
 L -12.6419,-63.5574 L -12.6673,-63.4441 L -12.6854,-63.3295 L -12.6963,-63.2139 L -12.7,-63.0979 L -12.6998,-63.0928
 L -12.7,-63.0928 L -12.7,-59.4072 L -12.6998,-59.4072 L -12.7,-59.4021 L -12.6963,-59.2861 L -12.6854,-59.1705
 L -12.6673,-59.0559 L -12.6419,-58.9426 L -12.6095,-58.8311 L -12.5702,-58.7219 L -12.5241,-58.6154 L -12.4714,-58.5119
 L -12.4123,-58.412 L -12.3471,-58.316 L -12.2759,-58.2243 L -12.1992,-58.1372 L -12.1171,-58.0551 L -12.03,-57.9784
 L -11.9383,-57.9072 L -11.8423,-57.842 L -11.7424,-57.7829 L -11.6389,-57.7302 L -11.5324,-57.6841 L -11.4232,-57.6447
 L -11.3117,-57.6124 L -11.1984,-57.587 L -11.0837,-57.5689 L -10.9682,-57.558 L -10.8521,-57.5543 L -10.8471,-57.5545
 L -10.8471,-57.5543 L -5,-57.5543 L -5,57.5543 L -10.8471,57.5543 L -10.8471,57.5545 L -10.8521,57.5543
 L -10.9682,57.558 L -11.0837,57.5689 L -11.1984,57.587 L -11.3117,57.6124 L -11.4232,57.6447 L -11.5324,57.6841
 L -11.6389,57.7302 L -11.7424,57.7829 L -11.8423,57.842 L -11.9383,57.9072 L -12.03,57.9784 L -12.1171,58.0551
 L -12.1992,58.1372 L -12.2759,58.2243 L -12.3471,58.316 L -12.4123,58.412 L -12.4714,58.5119 L -12.5241,58.6154
 L -12.5702,58.7219 L -12.6095,58.8311 L -12.6419,58.9426 L -12.6673,59.0559 L -12.6854,59.1705 L -12.6963,59.2861
 L -12.7,59.4021 L -12.6998,59.4072 L -12.7,59.4072 L -12.7,63.0928 L -12.6998,63.0928 L -12.7,63.0979
 L -12.6963,63.2139 L -12.6854,63.3295 L -12.6673,63.4441 L -12.6419,63.5574 L -12.6095,63.6689 L -12.5702,63.7781
 L -12.5241,63.8846 L -12.4714,63.9881 L -12.4123,64.088 L -12.3471,64.184 L -12.2759,64.2757 L -12.1992,64.3628
 L -12.1171,64.4449 L -12.03,64.5216 L -11.9383,64.5928 L -11.8423,64.658 L -11.7424,64.7171 L -11.6389,64.7698
 L -11.5324,64.8159 L -11.4232,64.8553 L -11.3117,64.8876 L -11.1984,64.913 L -11.0837,64.9311 L -10.9682,64.942
 L -10.8521,64.9457 L -10.8471,64.9455 L -10.8471,64.9457 L 10.8471,64.9457 z
M -11,-61.25 L -8,-63.25 L -8,-62.25 L -5,-62.25 L -5,-60.25 L -8,-60.25
 L -8,-59.25 z
M 9.39957,-59.2564 L 9.27463,-59.2682 L 9.15068,-59.2878 L 9.02821,-59.3152 L 8.9077,-59.3502 L 8.78964,-59.3927
 L 8.67447,-59.4426 L 8.56265,-59.4995 L 8.45464,-59.5634 L 8.35085,-59.6339 L 8.25169,-59.7108 L 8.15756,-59.7938
 L 8.06882,-59.8826 L 7.98584,-59.9767 L 7.90892,-60.0759 L 7.83838,-60.1797 L 7.77451,-60.2877 L 7.71753,-60.3995
 L 7.66769,-60.5146 L 7.62518,-60.6327 L 7.59018,-60.7532 L 7.56281,-60.8757 L 7.54317,-60.9996 L 7.53136,-61.1246
 L 7.52742,-61.25 L 7.53136,-61.3754 L 7.54317,-61.5004 L 7.56281,-61.6243 L 7.59018,-61.7468 L 7.62518,-61.8673
 L 7.66769,-61.9854 L 7.71753,-62.1005 L 7.77451,-62.2123 L 7.83838,-62.3203 L 7.90892,-62.4241 L 7.98584,-62.5233
 L 8.06882,-62.6174 L 8.15756,-62.7062 L 8.25169,-62.7892 L 8.35085,-62.8661 L 8.45464,-62.9366 L 8.56265,-63.0005
 L 8.67447,-63.0574 L 8.78964,-63.1073 L 8.9077,-63.1498 L 9.02821,-63.1848 L 9.15068,-63.2122 L 9.27463,-63.2318
 L 9.39957,-63.2436 L 9.52499,-63.2476 L 9.65042,-63.2436 L 9.77536,-63.2318 L 9.89931,-63.2122 L 10.0218,-63.1848
 L 10.1423,-63.1498 L 10.2603,-63.1073 L 10.3755,-63.0574 L 10.4873,-63.0005 L 10.5954,-62.9366 L 10.6991,-62.8661
 L 10.7983,-62.7892 L 10.8924,-62.7062 L 10.9812,-62.6174 L 11.0641,-62.5233 L 11.1411,-62.4241 L 11.2116,-62.3203
 L 11.2755,-62.2123 L 11.3325,-62.1005 L 11.3823,-61.9854 L 11.4248,-61.8673 L 11.4598,-61.7468 L 11.4872,-61.6243
 L 11.5068,-61.5004 L 11.5186,-61.3754 L 11.5226,-61.25 L 11.5186,-61.1246 L 11.5068,-60.9996 L 11.4872,-60.8757
 L 11.4598,-60.7532 L 11.4248,-60.6327 L 11.3823,-60.5146 L 11.3325,-60.3995 L 11.2755,-60.2877 L 11.2116,-60.1797
 L 11.1411,-60.0759 L 11.0641,-59.9767 L 10.9812,-59.8826 L 10.8924,-59.7938 L 10.7983,-59.7108 L 10.6991,-59.6339
 L 10.5954,-59.5634 L 10.4873,-59.4995 L 10.3755,-59.4426 L 10.2603,-59.3927 L 10.1423,-59.3502 L 10.0218,-59.3152
 L 9.89931,-59.2878 L 9.77536,-59.2682 L 9.65042,-59.2564 L 9.52499,-59.2524 z
M -0.125427,-58.2785 L -0.250351,-58.2903 L -0.374298,-58.3099 L -0.496765,-58.3373 L -0.617279,-58.3723 L -0.735352,-58.4148
 L -0.850525,-58.4646 L -0.962326,-58.5216 L -1.07034,-58.5855 L -1.17413,-58.656 L -1.2733,-58.7329 L -1.36743,-58.8159
 L -1.45616,-58.9047 L -1.53915,-58.9988 L -1.61607,-59.098 L -1.6866,-59.2018 L -1.75049,-59.3098 L -1.80745,-59.4216
 L -1.8573,-59.5367 L -1.8998,-59.6548 L -1.93481,-59.7753 L -1.96219,-59.8978 L -1.98181,-60.0217 L -1.99362,-60.1467
 L -1.99757,-60.2721 L -1.99362,-60.3975 L -1.98181,-60.5225 L -1.96219,-60.6464 L -1.93481,-60.7689 L -1.8998,-60.8894
 L -1.8573,-61.0075 L -1.80745,-61.1226 L -1.75049,-61.2345 L -1.6866,-61.3425 L -1.61607,-61.4462 L -1.53915,-61.5454
 L -1.45616,-61.6395 L -1.36743,-61.7283 L -1.2733,-61.8112 L -1.17413,-61.8882 L -1.07034,-61.9587 L -0.962326,-62.0226
 L -0.850525,-62.0796 L -0.735352,-62.1294 L -0.617279,-62.1719 L -0.496765,-62.2069 L -0.374298,-62.2343 L -0.250351,-62.2539
 L -0.125427,-62.2657 L 0,-62.2697 L 0.125427,-62.2657 L 0.250351,-62.2539 L 0.374298,-62.2343 L 0.496765,-62.2069
 L 0.617279,-62.1719 L 0.735352,-62.1294 L 0.850525,-62.0796 L 0.962326,-62.0226 L 1.07034,-61.9587 L 1.17413,-61.8882
 L 1.2733,-61.8112 L 1.36743,-61.7283 L 1.45616,-61.6395 L 1.53915,-61.5454 L 1.61607,-61.4462 L 1.6866,-61.3425
 L 1.75049,-61.2345 L 1.80745,-61.1226 L 1.8573,-61.0075 L 1.8998,-60.8894 L 1.93481,-60.7689 L 1.96219,-60.6464
 L 1.98181,-60.5225 L 1.99362,-60.3975 L 1.99757,-60.2721 L 1.99362,-60.1467 L 1.98181,-60.0217 L 1.96219,-59.8978
 L 1.93481,-59.7753 L 1.8998,-59.6548 L 1.8573,-59.5367 L 1.80745,-59.4216 L 1.75049,-59.3098 L 1.6866,-59.2018
 L 1.61607,-59.098 L 1.53915,-58.9988 L 1.45616,-58.9047 L 1.36743,-58.8159 L 1.2733,-58.7329 L 1.17413,-58.656
 L 1.07034,-58.5855 L 0.962326,-58.5216 L 0.850525,-58.4646 L 0.735352,-58.4148 L 0.617279,-58.3723 L 0.496765,-58.3373
 L 0.374298,-58.3099 L 0.250351,-58.2903 L 0.125427,-58.2785 L 0,-58.2745 z
M -0.125427,62.2657 L -0.250351,62.2539 L -0.374298,62.2343 L -0.496765,62.2069 L -0.617279,62.1719 L -0.735352,62.1294
 L -0.850525,62.0796 L -0.962326,62.0226 L -1.07034,61.9587 L -1.17413,61.8882 L -1.2733,61.8112 L -1.36743,61.7283
 L -1.45616,61.6395 L -1.53915,61.5454 L -1.61607,61.4462 L -1.6866,61.3425 L -1.75049,61.2345 L -1.80745,61.1226
 L -1.8573,61.0075 L -1.8998,60.8894 L -1.93481,60.7689 L -1.96219,60.6464 L -1.98181,60.5225 L -1.99362,60.3975
 L -1.99757,60.2721 L -1.99362,60.1467 L -1.98181,60.0217 L -1.96219,59.8978 L -1.93481,59.7753 L -1.8998,59.6548
 L -1.8573,59.5367 L -1.80745,59.4216 L -1.75049,59.3098 L -1.6866,59.2018 L -1.61607,59.098 L -1.53915,58.9988
 L -1.45616,58.9047 L -1.36743,58.8159 L -1.2733,58.7329 L -1.17413,58.656 L -1.07034,58.5855 L -0.962326,58.5216
 L -0.850525,58.4646 L -0.735352,58.4148 L -0.617279,58.3723 L -0.496765,58.3373 L -0.374298,58.3099 L -0.250351,58.2903
 L -0.125427,58.2785 L 0,58.2745 L 0.125427,58.2785 L 0.250351,58.2903 L 0.374298,58.3099 L 0.496765,58.3373
 L 0.617279,58.3723 L 0.735352,58.4148 L 0.850525,58.4646 L 0.962326,58.5216 L 1.07034,58.5855 L 1.17413,58.656
 L 1.2733,58.7329 L 1.36743,58.8159 L 1.45616,58.9047 L 1.53915,58.9988 L 1.61607,59.098 L 1.6866,59.2018
 L 1.75049,59.3098 L 1.80745,59.4216 L 1.8573,59.5367 L 1.8998,59.6548 L 1.93481,59.7753 L 1.96219,59.8978
 L 1.98181,60.0217 L 1.99362,60.1467 L 1.99757,60.2721 L 1.99362,60.3975 L 1.98181,60.5225 L 1.96219,60.6464
 L 1.93481,60.7689 L 1.8998,60.8894 L 1.8573,61.0075 L 1.80745,61.1226 L 1.75049,61.2345 L 1.6866,61.3425
 L 1.61607,61.4462 L 1.53915,61.5454 L 1.45616,61.6395 L 1.36743,61.7283 L 1.2733,61.8112 L 1.17413,61.8882
 L 1.07034,61.9587 L 0.962326,62.0226 L 0.850525,62.0796 L 0.735352,62.1294 L 0.617279,62.1719 L 0.496765,62.2069
 L 0.374298,62.2343 L 0.250351,62.2539 L 0.125427,62.2657 L 0,62.2697 z
M -11,61.25 L -8,59.25 L -8,60.25 L -5,60.25 L -5,62.25 L -8,62.25
 L -8,63.25 z
M 9.39957,63.2436 L 9.27463,63.2318 L 9.15068,63.2122 L 9.02821,63.1848 L 8.9077,63.1498 L 8.78964,63.1073
 L 8.67447,63.0574 L 8.56265,63.0005 L 8.45464,62.9366 L 8.35085,62.8661 L 8.25169,62.7892 L 8.15756,62.7062
 L 8.06882,62.6174 L 7.98584,62.5233 L 7.90892,62.4241 L 7.83838,62.3203 L 7.77451,62.2123 L 7.71753,62.1005
 L 7.66769,61.9854 L 7.62518,61.8673 L 7.59018,61.7468 L 7.56281,61.6243 L 7.54317,61.5004 L 7.53136,61.3754
 L 7.52742,61.25 L 7.53136,61.1246 L 7.54317,60.9996 L 7.56281,60.8757 L 7.59018,60.7532 L 7.62518,60.6327
 L 7.66769,60.5146 L 7.71753,60.3995 L 7.77451,60.2877 L 7.83838,60.1797 L 7.90892,60.0759 L 7.98584,59.9767
 L 8.06882,59.8826 L 8.15756,59.7938 L 8.25169,59.7108 L 8.35085,59.6339 L 8.45464,59.5634 L 8.56265,59.4995
 L 8.67447,59.4426 L 8.78964,59.3927 L 8.9077,59.3502 L 9.02821,59.3152 L 9.15068,59.2878 L 9.27463,59.2682
 L 9.39957,59.2564 L 9.52499,59.2524 L 9.65042,59.2564 L 9.77536,59.2682 L 9.89931,59.2878 L 10.0218,59.3152
 L 10.1423,59.3502 L 10.2603,59.3927 L 10.3755,59.4426 L 10.4873,59.4995 L 10.5954,59.5634 L 10.6991,59.6339
 L 10.7983,59.7108 L 10.8924,59.7938 L 10.9812,59.8826 L 11.0641,59.9767 L 11.1411,60.0759 L 11.2116,60.1797
 L 11.2755,60.2877 L 11.3325,60.3995 L 11.3823,60.5146 L 11.4248,60.6327 L 11.4598,60.7532 L 11.4872,60.8757
 L 11.5068,60.9996 L 11.5186,61.1246 L 11.5226,61.25 L 11.5186,61.3754 L 11.5068,61.5004 L 11.4872,61.6243
 L 11.4598,61.7468 L 11.4248,61.8673 L 11.3823,61.9854 L 11.3325,62.1005 L 11.2755,62.2123 L 11.2116,62.3203
 L 11.1411,62.4241 L 11.0641,62.5233 L 10.9812,62.6174 L 10.8924,62.7062 L 10.7983,62.7892 L 10.6991,62.8661
 L 10.5954,62.9366 L 10.4873,63.0005 L 10.3755,63.0574 L 10.2603,63.1073 L 10.1423,63.1498 L 10.0218,63.1848
 L 9.89931,63.2122 L 9.77536,63.2318 L 9.65042,63.2436 L 9.52499,63.2476 z
" stroke="black" fill="lightgray" stroke-width="0.5"/>
</svg>
