  0
SECTION
  2
BLOCKS
  0
ENDSEC
  0
SECTION
  2
ENTITIES
  0
LINE
  8
0
 10
12.7
 20
-1.4986
 11
10.8458
 21
-1.4986
  0
LINE
  8
0
 10
10.8458
 20
-1.4986
 11
10.8458
 21
-2.57809
  0
LINE
  8
0
 10
10.8458
 20
-2.57809
 11
8.20421
 21
-2.57809
  0
LINE
  8
0
 10
8.20421
 20
-2.57809
 11
8.20421
 21
-1.4986
  0
LINE
  8
0
 10
8.20421
 20
-1.4986
 11
6.9342
 21
-1.4986
  0
LINE
  8
0
 10
6.9342
 20
-1.4986
 11
6.9342
 21
1.4986
  0
LINE
  8
0
 10
6.9342
 20
1.4986
 11
8.20421
 21
1.4986
  0
LINE
  8
0
 10
8.20421
 20
1.4986
 11
8.20421
 21
2.57809
  0
LINE
  8
0
 10
8.20421
 20
2.57809
 11
10.8458
 21
2.57809
  0
LINE
  8
0
 10
10.8458
 20
2.57809
 11
10.8458
 21
1.4986
  0
LINE
  8
0
 10
10.8458
 20
1.4986
 11
12.7
 21
1.4986
  0
LINE
  8
0
 10
12.7
 20
1.4986
 11
12.7
 21
3.69569
  0
LINE
  8
0
 10
12.7
 20
3.69569
 11
1.4986
 21
3.69569
  0
LINE
  8
0
 10
1.4986
 20
3.69569
 11
1.4986
 21
2.29871
  0
LINE
  8
0
 10
1.4986
 20
2.29871
 11
2.57809
 21
2.29871
  0
LINE
  8
0
 10
2.57809
 20
2.29871
 11
2.57809
 21
-0.34288
  0
LINE
  8
0
 10
2.57809
 20
-0.34288
 11
1.4986
 21
-0.34288
  0
LINE
  8
0
 10
1.4986
 20
-0.34288
 11
1.4986
 21
-1.61288
  0
LINE
  8
0
 10
1.4986
 20
-1.61288
 11
-1.4986
 21
-1.61288
  0
LINE
  8
0
 10
-1.4986
 20
-1.61288
 11
-1.4986
 21
-0.34288
  0
LINE
  8
0
 10
-1.4986
 20
-0.34288
 11
-2.57809
 21
-0.34288
  0
LINE
  8
0
 10
-2.57809
 20
-0.34288
 11
-2.57809
 21
2.29871
  0
LINE
  8
0
 10
-2.57809
 20
2.29871
 11
-1.4986
 21
2.29871
  0
LINE
  8
0
 10
-1.4986
 20
2.29871
 11
-1.4986
 21
3.69569
  0
LINE
  8
0
 10
-1.4986
 20
3.69569
 11
-12.7
 21
3.69569
  0
LINE
  8
0
 10
-12.7
 20
3.69569
 11
-12.7
 21
1.4986
  0
LINE
  8
0
 10
-12.7
 20
1.4986
 11
-10.8458
 21
1.4986
  0
LINE
  8
0
 10
-10.8458
 20
1.4986
 11
-10.8458
 21
2.57809
  0
LINE
  8
0
 10
-10.8458
 20
2.57809
 11
-8.20421
 21
2.57809
  0
LINE
  8
0
 10
-8.20421
 20
2.57809
 11
-8.20421
 21
1.4986
  0
LINE
  8
0
 10
-8.20421
 20
1.4986
 11
-6.9342
 21
1.4986
  0
LINE
  8
0
 10
-6.9342
 20
1.4986
 11
-6.9342
 21
-1.4986
  0
LINE
  8
0
 10
-6.9342
 20
-1.4986
 11
-8.20421
 21
-1.4986
  0
LINE
  8
0
 10
-8.20421
 20
-1.4986
 11
-8.20421
 21
-2.57809
  0
LINE
  8
0
 10
-8.20421
 20
-2.57809
 11
-10.8458
 21
-2.57809
  0
LINE
  8
0
 10
-10.8458
 20
-2.57809
 11
-10.8458
 21
-1.4986
  0
LINE
  8
0
 10
-10.8458
 20
-1.4986
 11
-12.7
 21
-1.4986
  0
LINE
  8
0
 10
-12.7
 20
-1.4986
 11
-12.7
 21
-3.69569
  0
LINE
  8
0
 10
-12.7
 20
-3.69569
 11
12.7
 21
-3.69569
  0
LINE
  8
0
 10
12.7
 20
-3.69569
 11
12.7
 21
-1.4986
  0
LINE
  8
0
 10
0.125427
 20
-1.01573
 11
0.250351
 21
-1.00392
  0
LINE
  8
0
 10
0.250351
 20
-1.00392
 11
0.374298
 21
-0.984283
  0
LINE
  8
0
 10
0.374298
 20
-0.984283
 11
0.496765
 21
-0.956909
  0
LINE
  8
0
 10
0.496765
 20
-0.956909
 11
0.617279
 21
-0.921906
  0
LINE
  8
0
 10
0.617279
 20
-0.921906
 11
0.735352
 21
-0.879395
  0
LINE
  8
0
 10
0.735352
 20
-0.879395
 11
0.850525
 21
-0.829559
  0
LINE
  8
0
 10
0.850525
 20
-0.829559
 11
0.962326
 21
-0.772583
  0
LINE
  8
0
 10
0.962326
 20
-0.772583
 11
1.07034
 21
-0.70871
  0
LINE
  8
0
 10
1.07034
 20
-0.70871
 11
1.17413
 21
-0.638168
  0
LINE
  8
0
 10
1.17413
 20
-0.638168
 11
1.2733
 21
-0.561249
  0
LINE
  8
0
 10
1.2733
 20
-0.561249
 11
1.36743
 21
-0.478256
  0
LINE
  8
0
 10
1.36743
 20
-0.478256
 11
1.45616
 21
-0.389526
  0
LINE
  8
0
 10
1.45616
 20
-0.389526
 11
1.53915
 21
-0.295395
  0
LINE
  8
0
 10
1.53915
 20
-0.295395
 11
1.61607
 21
-0.196243
  0
LINE
  8
0
 10
1.61607
 20
-0.196243
 11
1.6866
 21
-0.092453
  0
LINE
  8
0
 10
1.6866
 20
-0.092453
 11
1.75049
 21
0.0155487
  0
LINE
  8
0
 10
1.75049
 20
0.0155487
 11
1.80745
 21
0.127365
  0
LINE
  8
0
 10
1.80745
 20
0.127365
 11
1.8573
 21
0.242538
  0
LINE
  8
0
 10
1.8573
 20
0.242538
 11
1.8998
 21
0.360611
  0
LINE
  8
0
 10
1.8998
 20
0.360611
 11
1.93481
 21
0.48111
  0
LINE
  8
0
 10
1.93481
 20
0.48111
 11
1.96219
 21
0.603577
  0
LINE
  8
0
 10
1.96219
 20
0.603577
 11
1.98181
 21
0.727524
  0
LINE
  8
0
 10
1.98181
 20
0.727524
 11
1.99362
 21
0.852463
  0
LINE
  8
0
 10
1.99362
 20
0.852463
 11
1.99757
 21
0.97789
  0
LINE
  8
0
 10
1.99757
 20
0.97789
 11
1.99362
 21
1.10332
  0
LINE
  8
0
 10
1.99362
 20
1.10332
 11
1.98181
 21
1.22826
  0
LINE
  8
0
 10
1.98181
 20
1.22826
 11
1.96219
 21
1.3522
  0
LINE
  8
0
 10
1.96219
 20
1.3522
 11
1.93481
 21
1.47467
  0
LINE
  8
0
 10
1.93481
 20
1.47467
 11
1.8998
 21
1.59518
  0
LINE
  8
0
 10
1.8998
 20
1.59518
 11
1.8573
 21
1.71326
  0
LINE
  8
0
 10
1.8573
 20
1.71326
 11
1.80745
 21
1.82841
  0
LINE
  8
0
 10
1.80745
 20
1.82841
 11
1.75049
 21
1.94023
  0
LINE
  8
0
 10
1.75049
 20
1.94023
 11
1.6866
 21
2.04825
  0
LINE
  8
0
 10
1.6866
 20
2.04825
 11
1.61607
 21
2.15204
  0
LINE
  8
0
 10
1.61607
 20
2.15204
 11
1.53915
 21
2.25119
  0
LINE
  8
0
 10
1.53915
 20
2.25119
 11
1.45616
 21
2.34532
  0
LINE
  8
0
 10
1.45616
 20
2.34532
 11
1.36743
 21
2.43407
  0
LINE
  8
0
 10
1.36743
 20
2.43407
 11
1.2733
 21
2.51706
  0
LINE
  8
0
 10
1.2733
 20
2.51706
 11
1.17413
 21
2.59396
  0
LINE
  8
0
 10
1.17413
 20
2.59396
 11
1.07034
 21
2.66451
  0
LINE
  8
0
 10
1.07034
 20
2.66451
 11
0.962326
 21
2.72838
  0
LINE
  8
0
 10
0.962326
 20
2.72838
 11
0.850525
 21
2.78535
  0
LINE
  8
0
 10
0.850525
 20
2.78535
 11
0.735352
 21
2.83519
  0
LINE
  8
0
 10
0.735352
 20
2.83519
 11
0.617279
 21
2.8777
  0
LINE
  8
0
 10
0.617279
 20
2.8777
 11
0.496765
 21
2.9127
  0
LINE
  8
0
 10
0.496765
 20
2.9127
 11
0.374298
 21
2.94009
  0
LINE
  8
0
 10
0.374298
 20
2.94009
 11
0.250351
 21
2.95972
  0
LINE
  8
0
 10
0.250351
 20
2.95972
 11
0.125427
 21
2.97153
  0
LINE
  8
0
 10
0.125427
 20
2.97153
 11
0
 21
2.97546
  0
LINE
  8
0
 10
0
 20
2.97546
 11
-0.125427
 21
2.97153
  0
LINE
  8
0
 10
-0.125427
 20
2.97153
 11
-0.250351
 21
2.95972
  0
LINE
  8
0
 10
-0.250351
 20
2.95972
 11
-0.374298
 21
2.94009
  0
LINE
  8
0
 10
-0.374298
 20
2.94009
 11
-0.496765
 21
2.9127
  0
LINE
  8
0
 10
-0.496765
 20
2.9127
 11
-0.617279
 21
2.8777
  0
LINE
  8
0
 10
-0.617279
 20
2.8777
 11
-0.735352
 21
2.83519
  0
LINE
  8
0
 10
-0.735352
 20
2.83519
 11
-0.850525
 21
2.78535
  0
LINE
  8
0
 10
-0.850525
 20
2.78535
 11
-0.962326
 21
2.72838
  0
LINE
  8
0
 10
-0.962326
 20
2.72838
 11
-1.07034
 21
2.66451
  0
LINE
  8
0
 10
-1.07034
 20
2.66451
 11
-1.17413
 21
2.59396
  0
LINE
  8
0
 10
-1.17413
 20
2.59396
 11
-1.2733
 21
2.51706
  0
LINE
  8
0
 10
-1.2733
 20
2.51706
 11
-1.36743
 21
2.43407
  0
LINE
  8
0
 10
-1.36743
 20
2.43407
 11
-1.45616
 21
2.34532
  0
LINE
  8
0
 10
-1.45616
 20
2.34532
 11
-1.53915
 21
2.25119
  0
LINE
  8
0
 10
-1.53915
 20
2.25119
 11
-1.61607
 21
2.15204
  0
LINE
  8
0
 10
-1.61607
 20
2.15204
 11
-1.6866
 21
2.04825
  0
LINE
  8
0
 10
-1.6866
 20
2.04825
 11
-1.75049
 21
1.94023
  0
LINE
  8
0
 10
-1.75049
 20
1.94023
 11
-1.80745
 21
1.82841
  0
LINE
  8
0
 10
-1.80745
 20
1.82841
 11
-1.8573
 21
1.71326
  0
LINE
  8
0
 10
-1.8573
 20
1.71326
 11
-1.8998
 21
1.59518
  0
LINE
  8
0
 10
-1.8998
 20
1.59518
 11
-1.93481
 21
1.47467
  0
LINE
  8
0
 10
-1.93481
 20
1.47467
 11
-1.96219
 21
1.3522
  0
LINE
  8
0
 10
-1.96219
 20
1.3522
 11
-1.98181
 21
1.22826
  0
LINE
  8
0
 10
-1.98181
 20
1.22826
 11
-1.99362
 21
1.10332
  0
LINE
  8
0
 10
-1.99362
 20
1.10332
 11
-1.99757
 21
0.97789
  0
LINE
  8
0
 10
-1.99757
 20
0.97789
 11
-1.99362
 21
0.852463
  0
LINE
  8
0
 10
-1.99362
 20
0.852463
 11
-1.98181
 21
0.727524
  0
LINE
  8
0
 10
-1.98181
 20
0.727524
 11
-1.96219
 21
0.603577
  0
LINE
  8
0
 10
-1.96219
 20
0.603577
 11
-1.93481
 21
0.48111
  0
LINE
  8
0
 10
-1.93481
 20
0.48111
 11
-1.8998
 21
0.360611
  0
LINE
  8
0
 10
-1.8998
 20
0.360611
 11
-1.8573
 21
0.242538
  0
LINE
  8
0
 10
-1.8573
 20
0.242538
 11
-1.80745
 21
0.127365
  0
LINE
  8
0
 10
-1.80745
 20
0.127365
 11
-1.75049
 21
0.0155487
  0
LINE
  8
0
 10
-1.75049
 20
0.0155487
 11
-1.6866
 21
-0.092453
  0
LINE
  8
0
 10
-1.6866
 20
-0.092453
 11
-1.61607
 21
-0.196243
  0
LINE
  8
0
 10
-1.61607
 20
-0.196243
 11
-1.53915
 21
-0.295395
  0
LINE
  8
0
 10
-1.53915
 20
-0.295395
 11
-1.45616
 21
-0.389526
  0
LINE
  8
0
 10
-1.45616
 20
-0.389526
 11
-1.36743
 21
-0.478256
  0
LINE
  8
0
 10
-1.36743
 20
-0.478256
 11
-1.2733
 21
-0.561249
  0
LINE
  8
0
 10
-1.2733
 20
-0.561249
 11
-1.17413
 21
-0.638168
  0
LINE
  8
0
 10
-1.17413
 20
-0.638168
 11
-1.07034
 21
-0.70871
  0
LINE
  8
0
 10
-1.07034
 20
-0.70871
 11
-0.962326
 21
-0.772583
  0
LINE
  8
0
 10
-0.962326
 20
-0.772583
 11
-0.850525
 21
-0.829559
  0
LINE
  8
0
 10
-0.850525
 20
-0.829559
 11
-0.735352
 21
-0.879395
  0
LINE
  8
0
 10
-0.735352
 20
-0.879395
 11
-0.617279
 21
-0.921906
  0
LINE
  8
0
 10
-0.617279
 20
-0.921906
 11
-0.496765
 21
-0.956909
  0
LINE
  8
0
 10
-0.496765
 20
-0.956909
 11
-0.374298
 21
-0.984283
  0
LINE
  8
0
 10
-0.374298
 20
-0.984283
 11
-0.250351
 21
-1.00392
  0
LINE
  8
0
 10
-0.250351
 20
-1.00392
 11
-0.125427
 21
-1.01573
  0
LINE
  8
0
 10
-0.125427
 20
-1.01573
 11
0
 21
-1.01967
  0
LINE
  8
0
 10
0
 20
-1.01967
 11
0.125427
 21
-1.01573
  0
LINE
  8
0
 10
-9.39957
 20
-1.99362
 11
-9.27463
 21
-1.98181
  0
LINE
  8
0
 10
-9.27463
 20
-1.98181
 11
-9.15068
 21
-1.96219
  0
LINE
  8
0
 10
-9.15068
 20
-1.96219
 11
-9.02821
 21
-1.93481
  0
LINE
  8
0
 10
-9.02821
 20
-1.93481
 11
-8.9077
 21
-1.8998
  0
LINE
  8
0
 10
-8.9077
 20
-1.8998
 11
-8.78964
 21
-1.8573
  0
LINE
  8
0
 10
-8.78964
 20
-1.8573
 11
-8.67447
 21
-1.80745
  0
LINE
  8
0
 10
-8.67447
 20
-1.80745
 11
-8.56265
 21
-1.75049
  0
LINE
  8
0
 10
-8.56265
 20
-1.75049
 11
-8.45464
 21
-1.6866
  0
LINE
  8
0
 10
-8.45464
 20
-1.6866
 11
-8.35085
 21
-1.61607
  0
LINE
  8
0
 10
-8.35085
 20
-1.61607
 11
-8.25169
 21
-1.53915
  0
LINE
  8
0
 10
-8.25169
 20
-1.53915
 11
-8.15756
 21
-1.45616
  0
LINE
  8
0
 10
-8.15756
 20
-1.45616
 11
-8.06882
 21
-1.36743
  0
LINE
  8
0
 10
-8.06882
 20
-1.36743
 11
-7.98584
 21
-1.2733
  0
LINE
  8
0
 10
-7.98584
 20
-1.2733
 11
-7.90892
 21
-1.17413
  0
LINE
  8
0
 10
-7.90892
 20
-1.17413
 11
-7.83838
 21
-1.07034
  0
LINE
  8
0
 10
-7.83838
 20
-1.07034
 11
-7.77451
 21
-0.962326
  0
LINE
  8
0
 10
-7.77451
 20
-0.962326
 11
-7.71753
 21
-0.850525
  0
LINE
  8
0
 10
-7.71753
 20
-0.850525
 11
-7.66769
 21
-0.735352
  0
LINE
  8
0
 10
-7.66769
 20
-0.735352
 11
-7.62518
 21
-0.617279
  0
LINE
  8
0
 10
-7.62518
 20
-0.617279
 11
-7.59018
 21
-0.496765
  0
LINE
  8
0
 10
-7.59018
 20
-0.496765
 11
-7.56281
 21
-0.374298
  0
LINE
  8
0
 10
-7.56281
 20
-0.374298
 11
-7.54317
 21
-0.250351
  0
LINE
  8
0
 10
-7.54317
 20
-0.250351
 11
-7.53136
 21
-0.125427
  0
LINE
  8
0
 10
-7.53136
 20
-0.125427
 11
-7.52742
 21
0
  0
LINE
  8
0
 10
-7.52742
 20
0
 11
-7.53136
 21
0.125427
  0
LINE
  8
0
 10
-7.53136
 20
0.125427
 11
-7.54317
 21
0.250351
  0
LINE
  8
0
 10
-7.54317
 20
0.250351
 11
-7.56281
 21
0.374298
  0
LINE
  8
0
 10
-7.56281
 20
0.374298
 11
-7.59018
 21
0.496765
  0
LINE
  8
0
 10
-7.59018
 20
0.496765
 11
-7.62518
 21
0.617279
  0
LINE
  8
0
 10
-7.62518
 20
0.617279
 11
-7.66769
 21
0.735352
  0
LINE
  8
0
 10
-7.66769
 20
0.735352
 11
-7.71753
 21
0.850525
  0
LINE
  8
0
 10
-7.71753
 20
0.850525
 11
-7.77451
 21
0.962326
  0
LINE
  8
0
 10
-7.77451
 20
0.962326
 11
-7.83838
 21
1.07034
  0
LINE
  8
0
 10
-7.83838
 20
1.07034
 11
-7.90892
 21
1.17413
  0
LINE
  8
0
 10
-7.90892
 20
1.17413
 11
-7.98584
 21
1.2733
  0
LINE
  8
0
 10
-7.98584
 20
1.2733
 11
-8.06882
 21
1.36743
  0
LINE
  8
0
 10
-8.06882
 20
1.36743
 11
-8.15756
 21
1.45616
  0
LINE
  8
0
 10
-8.15756
 20
1.45616
 11
-8.25169
 21
1.53915
  0
LINE
  8
0
 10
-8.25169
 20
1.53915
 11
-8.35085
 21
1.61607
  0
LINE
  8
0
 10
-8.35085
 20
1.61607
 11
-8.45464
 21
1.6866
  0
LINE
  8
0
 10
-8.45464
 20
1.6866
 11
-8.56265
 21
1.75049
  0
LINE
  8
0
 10
-8.56265
 20
1.75049
 11
-8.67447
 21
1.80745
  0
LINE
  8
0
 10
-8.67447
 20
1.80745
 11
-8.78964
 21
1.8573
  0
LINE
  8
0
 10
-8.78964
 20
1.8573
 11
-8.9077
 21
1.8998
  0
LINE
  8
0
 10
-8.9077
 20
1.8998
 11
-9.02821
 21
1.93481
  0
LINE
  8
0
 10
-9.02821
 20
1.93481
 11
-9.15068
 21
1.96219
  0
LINE
  8
0
 10
-9.15068
 20
1.96219
 11
-9.27463
 21
1.98181
  0
LINE
  8
0
 10
-9.27463
 20
1.98181
 11
-9.39957
 21
1.99362
  0
LINE
  8
0
 10
-9.39957
 20
1.99362
 11
-9.52499
 21
1.99757
  0
LINE
  8
0
 10
-9.52499
 20
1.99757
 11
-9.65042
 21
1.99362
  0
LINE
  8
0
 10
-9.65042
 20
1.99362
 11
-9.77536
 21
1.98181
  0
LINE
  8
0
 10
-9.77536
 20
1.98181
 11
-9.89931
 21
1.96219
  0
LINE
  8
0
 10
-9.89931
 20
1.96219
 11
-10.0218
 21
1.93481
  0
LINE
  8
0
 10
-10.0218
 20
1.93481
 11
-10.1423
 21
1.8998
  0
LINE
  8
0
 10
-10.1423
 20
1.8998
 11
-10.2603
 21
1.8573
  0
LINE
  8
0
 10
-10.2603
 20
1.8573
 11
-10.3755
 21
1.80745
  0
LINE
  8
0
 10
-10.3755
 20
1.80745
 11
-10.4873
 21
1.75049
  0
LINE
  8
0
 10
-10.4873
 20
1.75049
 11
-10.5954
 21
1.6866
  0
LINE
  8
0
 10
-10.5954
 20
1.6866
 11
-10.6991
 21
1.61607
  0
LINE
  8
0
 10
-10.6991
 20
1.61607
 11
-10.7983
 21
1.53915
  0
LINE
  8
0
 10
-10.7983
 20
1.53915
 11
-10.8924
 21
1.45616
  0
LINE
  8
0
 10
-10.8924
 20
1.45616
 11
-10.9812
 21
1.36743
  0
LINE
  8
0
 10
-10.9812
 20
1.36743
 11
-11.0641
 21
1.2733
  0
LINE
  8
0
 10
-11.0641
 20
1.2733
 11
-11.1411
 21
1.17413
  0
LINE
  8
0
 10
-11.1411
 20
1.17413
 11
-11.2116
 21
1.07034
  0
LINE
  8
0
 10
-11.2116
 20
1.07034
 11
-11.2755
 21
0.962326
  0
LINE
  8
0
 10
-11.2755
 20
0.962326
 11
-11.3325
 21
0.850525
  0
LINE
  8
0
 10
-11.3325
 20
0.850525
 11
-11.3823
 21
0.735352
  0
LINE
  8
0
 10
-11.3823
 20
0.735352
 11
-11.4248
 21
0.617279
  0
LINE
  8
0
 10
-11.4248
 20
0.617279
 11
-11.4598
 21
0.496765
  0
LINE
  8
0
 10
-11.4598
 20
0.496765
 11
-11.4872
 21
0.374298
  0
LINE
  8
0
 10
-11.4872
 20
0.374298
 11
-11.5068
 21
0.250351
  0
LINE
  8
0
 10
-11.5068
 20
0.250351
 11
-11.5186
 21
0.125427
  0
LINE
  8
0
 10
-11.5186
 20
0.125427
 11
-11.5226
 21
0
  0
LINE
  8
0
 10
-11.5226
 20
0
 11
-11.5186
 21
-0.125427
  0
LINE
  8
0
 10
-11.5186
 20
-0.125427
 11
-11.5068
 21
-0.250351
  0
LINE
  8
0
 10
-11.5068
 20
-0.250351
 11
-11.4872
 21
-0.374298
  0
LINE
  8
0
 10
-11.4872
 20
-0.374298
 11
-11.4598
 21
-0.496765
  0
LINE
  8
0
 10
-11.4598
 20
-0.496765
 11
-11.4248
 21
-0.617279
  0
LINE
  8
0
 10
-11.4248
 20
-0.617279
 11
-11.3823
 21
-0.735352
  0
LINE
  8
0
 10
-11.3823
 20
-0.735352
 11
-11.3325
 21
-0.850525
  0
LINE
  8
0
 10
-11.3325
 20
-0.850525
 11
-11.2755
 21
-0.962326
  0
LINE
  8
0
 10
-11.2755
 20
-0.962326
 11
-11.2116
 21
-1.07034
  0
LINE
  8
0
 10
-11.2116
 20
-1.07034
 11
-11.1411
 21
-1.17413
  0
LINE
  8
0
 10
-11.1411
 20
-1.17413
 11
-11.0641
 21
-1.2733
  0
LINE
  8
0
 10
-11.0641
 20
-1.2733
 11
-10.9812
 21
-1.36743
  0
LINE
  8
0
 10
-10.9812
 20
-1.36743
 11
-10.8924
 21
-1.45616
  0
LINE
  8
0
 10
-10.8924
 20
-1.45616
 11
-10.7983
 21
-1.53915
  0
LINE
  8
0
 10
-10.7983
 20
-1.53915
 11
-10.6991
 21
-1.61607
  0
LINE
  8
0
 10
-10.6991
 20
-1.61607
 11
-10.5954
 21
-1.6866
  0
LINE
  8
0
 10
-10.5954
 20
-1.6866
 11
-10.4873
 21
-1.75049
  0
LINE
  8
0
 10
-10.4873
 20
-1.75049
 11
-10.3755
 21
-1.80745
  0
LINE
  8
0
 10
-10.3755
 20
-1.80745
 11
-10.2603
 21
-1.8573
  0
LINE
  8
0
 10
-10.2603
 20
-1.8573
 11
-10.1423
 21
-1.8998
  0
LINE
  8
0
 10
-10.1423
 20
-1.8998
 11
-10.0218
 21
-1.93481
  0
LINE
  8
0
 10
-10.0218
 20
-1.93481
 11
-9.89931
 21
-1.96219
  0
LINE
  8
0
 10
-9.89931
 20
-1.96219
 11
-9.77536
 21
-1.98181
  0
LINE
  8
0
 10
-9.77536
 20
-1.98181
 11
-9.65042
 21
-1.99362
  0
LINE
  8
0
 10
-9.65042
 20
-1.99362
 11
-9.52499
 21
-1.99757
  0
LINE
  8
0
 10
-9.52499
 20
-1.99757
 11
-9.39957
 21
-1.99362
  0
LINE
  8
0
 10
9.65042
 20
-1.99362
 11
9.77536
 21
-1.98181
  0
LINE
  8
0
 10
9.77536
 20
-1.98181
 11
9.89931
 21
-1.96219
  0
LINE
  8
0
 10
9.89931
 20
-1.96219
 11
10.0218
 21
-1.93481
  0
LINE
  8
0
 10
10.0218
 20
-1.93481
 11
10.1423
 21
-1.8998
  0
LINE
  8
0
 10
10.1423
 20
-1.8998
 11
10.2603
 21
-1.8573
  0
LINE
  8
0
 10
10.2603
 20
-1.8573
 11
10.3755
 21
-1.80745
  0
LINE
  8
0
 10
10.3755
 20
-1.80745
 11
10.4873
 21
-1.75049
  0
LINE
  8
0
 10
10.4873
 20
-1.75049
 11
10.5954
 21
-1.6866
  0
LINE
  8
0
 10
10.5954
 20
-1.6866
 11
10.6991
 21
-1.61607
  0
LINE
  8
0
 10
10.6991
 20
-1.61607
 11
10.7983
 21
-1.53915
  0
LINE
  8
0
 10
10.7983
 20
-1.53915
 11
10.8924
 21
-1.45616
  0
LINE
  8
0
 10
10.8924
 20
-1.45616
 11
10.9812
 21
-1.36743
  0
LINE
  8
0
 10
10.9812
 20
-1.36743
 11
11.0641
 21
-1.2733
  0
LINE
  8
0
 10
11.0641
 20
-1.2733
 11
11.1411
 21
-1.17413
  0
LINE
  8
0
 10
11.1411
 20
-1.17413
 11
11.2116
 21
-1.07034
  0
LINE
  8
0
 10
11.2116
 20
-1.07034
 11
11.2755
 21
-0.962326
  0
LINE
  8
0
 10
11.2755
 20
-0.962326
 11
11.3325
 21
-0.850525
  0
LINE
  8
0
 10
11.3325
 20
-0.850525
 11
11.3823
 21
-0.735352
  0
LINE
  8
0
 10
11.3823
 20
-0.735352
 11
11.4248
 21
-0.617279
  0
LINE
  8
0
 10
11.4248
 20
-0.617279
 11
11.4598
 21
-0.496765
  0
LINE
  8
0
 10
11.4598
 20
-0.496765
 11
11.4872
 21
-0.374298
  0
LINE
  8
0
 10
11.4872
 20
-0.374298
 11
11.5068
 21
-0.250351
  0
LINE
  8
0
 10
11.5068
 20
-0.250351
 11
11.5186
 21
-0.125427
  0
LINE
  8
0
 10
11.5186
 20
-0.125427
 11
11.5226
 21
0
  0
LINE
  8
0
 10
11.5226
 20
0
 11
11.5186
 21
0.125427
  0
LINE
  8
0
 10
11.5186
 20
0.125427
 11
11.5068
 21
0.250351
  0
LINE
  8
0
 10
11.5068
 20
0.250351
 11
11.4872
 21
0.374298
  0
LINE
  8
0
 10
11.4872
 20
0.374298
 11
11.4598
 21
0.496765
  0
LINE
  8
0
 10
11.4598
 20
0.496765
 11
11.4248
 21
0.617279
  0
LINE
  8
0
 10
11.4248
 20
0.617279
 11
11.3823
 21
0.735352
  0
LINE
  8
0
 10
11.3823
 20
0.735352
 11
11.3325
 21
0.850525
  0
LINE
  8
0
 10
11.3325
 20
0.850525
 11
11.2755
 21
0.962326
  0
LINE
  8
0
 10
11.2755
 20
0.962326
 11
11.2116
 21
1.07034
  0
LINE
  8
0
 10
11.2116
 20
1.07034
 11
11.1411
 21
1.17413
  0
LINE
  8
0
 10
11.1411
 20
1.17413
 11
11.0641
 21
1.2733
  0
LINE
  8
0
 10
11.0641
 20
1.2733
 11
10.9812
 21
1.36743
  0
LINE
  8
0
 10
10.9812
 20
1.36743
 11
10.8924
 21
1.45616
  0
LINE
  8
0
 10
10.8924
 20
1.45616
 11
10.7983
 21
1.53915
  0
LINE
  8
0
 10
10.7983
 20
1.53915
 11
10.6991
 21
1.61607
  0
LINE
  8
0
 10
10.6991
 20
1.61607
 11
10.5954
 21
1.6866
  0
LINE
  8
0
 10
10.5954
 20
1.6866
 11
10.4873
 21
1.75049
  0
LINE
  8
0
 10
10.4873
 20
1.75049
 11
10.3755
 21
1.80745
  0
LINE
  8
0
 10
10.3755
 20
1.80745
 11
10.2603
 21
1.8573
  0
LINE
  8
0
 10
10.2603
 20
1.8573
 11
10.1423
 21
1.8998
  0
LINE
  8
0
 10
10.1423
 20
1.8998
 11
10.0218
 21
1.93481
  0
LINE
  8
0
 10
10.0218
 20
1.93481
 11
9.89931
 21
1.96219
  0
LINE
  8
0
 10
9.89931
 20
1.96219
 11
9.77536
 21
1.98181
  0
LINE
  8
0
 10
9.77536
 20
1.98181
 11
9.65042
 21
1.99362
  0
LINE
  8
0
 10
9.65042
 20
1.99362
 11
9.52499
 21
1.99757
  0
LINE
  8
0
 10
9.52499
 20
1.99757
 11
9.39957
 21
1.99362
  0
LINE
  8
0
 10
9.39957
 20
1.99362
 11
9.27463
 21
1.98181
  0
LINE
  8
0
 10
9.27463
 20
1.98181
 11
9.15068
 21
1.96219
  0
LINE
  8
0
 10
9.15068
 20
1.96219
 11
9.02821
 21
1.93481
  0
LINE
  8
0
 10
9.02821
 20
1.93481
 11
8.9077
 21
1.8998
  0
LINE
  8
0
 10
8.9077
 20
1.8998
 11
8.78964
 21
1.8573
  0
LINE
  8
0
 10
8.78964
 20
1.8573
 11
8.67447
 21
1.80745
  0
LINE
  8
0
 10
8.67447
 20
1.80745
 11
8.56265
 21
1.75049
  0
LINE
  8
0
 10
8.56265
 20
1.75049
 11
8.45464
 21
1.6866
  0
LINE
  8
0
 10
8.45464
 20
1.6866
 11
8.35085
 21
1.61607
  0
LINE
  8
0
 10
8.35085
 20
1.61607
 11
8.25169
 21
1.53915
  0
LINE
  8
0
 10
8.25169
 20
1.53915
 11
8.15756
 21
1.45616
  0
LINE
  8
0
 10
8.15756
 20
1.45616
 11
8.06882
 21
1.36743
  0
LINE
  8
0
 10
8.06882
 20
1.36743
 11
7.98584
 21
1.2733
  0
LINE
  8
0
 10
7.98584
 20
1.2733
 11
7.90892
 21
1.17413
  0
LINE
  8
0
 10
7.90892
 20
1.17413
 11
7.83838
 21
1.07034
  0
LINE
  8
0
 10
7.83838
 20
1.07034
 11
7.77451
 21
0.962326
  0
LINE
  8
0
 10
7.77451
 20
0.962326
 11
7.71753
 21
0.850525
  0
LINE
  8
0
 10
7.71753
 20
0.850525
 11
7.66769
 21
0.735352
  0
LINE
  8
0
 10
7.66769
 20
0.735352
 11
7.62518
 21
0.617279
  0
LINE
  8
0
 10
7.62518
 20
0.617279
 11
7.59018
 21
0.496765
  0
LINE
  8
0
 10
7.59018
 20
0.496765
 11
7.56281
 21
0.374298
  0
LINE
  8
0
 10
7.56281
 20
0.374298
 11
7.54317
 21
0.250351
  0
LINE
  8
0
 10
7.54317
 20
0.250351
 11
7.53136
 21
0.125427
  0
LINE
  8
0
 10
7.53136
 20
0.125427
 11
7.52742
 21
0
  0
LINE
  8
0
 10
7.52742
 20
0
 11
7.53136
 21
-0.125427
  0
LINE
  8
0
 10
7.53136
 20
-0.125427
 11
7.54317
 21
-0.250351
  0
LINE
  8
0
 10
7.54317
 20
-0.250351
 11
7.56281
 21
-0.374298
  0
LINE
  8
0
 10
7.56281
 20
-0.374298
 11
7.59018
 21
-0.496765
  0
LINE
  8
0
 10
7.59018
 20
-0.496765
 11
7.62518
 21
-0.617279
  0
LINE
  8
0
 10
7.62518
 20
-0.617279
 11
7.66769
 21
-0.735352
  0
LINE
  8
0
 10
7.66769
 20
-0.735352
 11
7.71753
 21
-0.850525
  0
LINE
  8
0
 10
7.71753
 20
-0.850525
 11
7.77451
 21
-0.962326
  0
LINE
  8
0
 10
7.77451
 20
-0.962326
 11
7.83838
 21
-1.07034
  0
LINE
  8
0
 10
7.83838
 20
-1.07034
 11
7.90892
 21
-1.17413
  0
LINE
  8
0
 10
7.90892
 20
-1.17413
 11
7.98584
 21
-1.2733
  0
LINE
  8
0
 10
7.98584
 20
-1.2733
 11
8.06882
 21
-1.36743
  0
LINE
  8
0
 10
8.06882
 20
-1.36743
 11
8.15756
 21
-1.45616
  0
LINE
  8
0
 10
8.15756
 20
-1.45616
 11
8.25169
 21
-1.53915
  0
LINE
  8
0
 10
8.25169
 20
-1.53915
 11
8.35085
 21
-1.61607
  0
LINE
  8
0
 10
8.35085
 20
-1.61607
 11
8.45464
 21
-1.6866
  0
LINE
  8
0
 10
8.45464
 20
-1.6866
 11
8.56265
 21
-1.75049
  0
LINE
  8
0
 10
8.56265
 20
-1.75049
 11
8.67447
 21
-1.80745
  0
LINE
  8
0
 10
8.67447
 20
-1.80745
 11
8.78964
 21
-1.8573
  0
LINE
  8
0
 10
8.78964
 20
-1.8573
 11
8.9077
 21
-1.8998
  0
LINE
  8
0
 10
8.9077
 20
-1.8998
 11
9.02821
 21
-1.93481
  0
LINE
  8
0
 10
9.02821
 20
-1.93481
 11
9.15068
 21
-1.96219
  0
LINE
  8
0
 10
9.15068
 20
-1.96219
 11
9.27463
 21
-1.98181
  0
LINE
  8
0
 10
9.27463
 20
-1.98181
 11
9.39957
 21
-1.99362
  0
LINE
  8
0
 10
9.39957
 20
-1.99362
 11
9.52499
 21
-1.99757
  0
LINE
  8
0
 10
9.52499
 20
-1.99757
 11
9.65042
 21
-1.99362
  0
ENDSEC
  0
SECTION
  2
OBJECTS
  0
DICTIONARY
  0
ENDSEC
  0
EOF
